<?xml version="1.0" encoding="iso-8859-1"?>
<!-- Generator: Adobe Illustrator 24.3.0, SVG Export Plug-In . SVG Version: 6.00 Build 0)  -->
<svg version="1.1" id="Layer_1" xmlns="http://www.w3.org/2000/svg" xmlns:xlink="http://www.w3.org/1999/xlink" x="0px" y="0px"
	 viewBox="0 0 500 500" style="enable-background:new 0 0 500 500;" xml:space="preserve">
<g id="watermark_1_">
	<g>
		<g id="watermark" style="opacity:0.61;">
			<g>
				<g>
					<g>
						<g>
							<polygon style="fill:#FFFFFF;" points="213.765,461.172 208.204,474.017 205.268,474.017 199.726,461.172 202.938,461.172 
								206.846,470.347 210.81,461.172 							"/>
						</g>
						<g>
							<path style="fill:#FFFFFF;" d="M223.507,469.741h-7.469c0.275,1.23,1.321,1.982,2.826,1.982c1.046,0,1.798-0.312,2.477-0.954
								l1.523,1.651c-0.917,1.046-2.294,1.597-4.074,1.597c-3.413,0-5.634-2.147-5.634-5.083c0-2.954,2.257-5.083,5.267-5.083
								c2.899,0,5.138,1.945,5.138,5.12C223.562,469.191,223.526,469.503,223.507,469.741 M216.002,468.071h4.863
								c-0.202-1.248-1.138-2.055-2.422-2.055C217.139,466.016,216.204,466.805,216.002,468.071"/>
						</g>
						<g>
							<path style="fill:#FFFFFF;" d="M224.735,468.934c0-2.973,2.294-5.083,5.505-5.083c2.074,0,3.707,0.899,4.423,2.514
								l-2.22,1.193c-0.532-0.936-1.321-1.358-2.221-1.358c-1.45,0-2.587,1.009-2.587,2.734c0,1.725,1.138,2.734,2.587,2.734
								c0.899,0,1.688-0.404,2.221-1.358l2.22,1.211c-0.716,1.578-2.349,2.495-4.423,2.495
								C227.029,474.017,224.735,471.907,224.735,468.934"/>
						</g>
						<g>
							<path style="fill:#FFFFFF;" d="M242.828,473.393c-0.587,0.422-1.45,0.624-2.331,0.624c-2.33,0-3.688-1.193-3.688-3.542
								v-4.055h-1.523v-2.202h1.523v-2.404h2.863v2.404h2.459v2.202h-2.459v4.019c0,0.844,0.458,1.303,1.229,1.303
								c0.422,0,0.844-0.128,1.156-0.367L242.828,473.393z"/>
						</g>
					</g>
					<g>
						<path style="fill:#FFFFFF;" d="M262.474,463.997v2.643c-0.238-0.018-0.422-0.037-0.642-0.037
							c-1.578,0-2.624,0.862-2.624,2.753v4.661h-2.863v-9.873h2.734v1.303C259.776,464.493,260.951,463.997,262.474,463.997"/>
					</g>
					<g>
						<path style="fill:#FFFFFF;" d="M263.299,472.53l1.009-2.239c1.083,0.789,2.697,1.339,4.239,1.339
							c1.762,0,2.477-0.587,2.477-1.376c0-2.404-7.469-0.752-7.469-5.524c0-2.184,1.762-4,5.413-4c1.615,0,3.267,0.385,4.459,1.138
							l-0.918,2.257c-1.193-0.679-2.422-1.009-3.56-1.009c-1.761,0-2.44,0.66-2.44,1.468c0,2.367,7.468,0.734,7.468,5.45
							c0,2.147-1.78,3.982-5.45,3.982C266.492,474.017,264.437,473.411,263.299,472.53"/>
					</g>
					<g>
						<path style="fill:#FFFFFF;" d="M285.428,469.741h-7.469c0.275,1.23,1.321,1.982,2.826,1.982c1.046,0,1.798-0.312,2.477-0.954
							l1.523,1.651c-0.918,1.046-2.294,1.597-4.074,1.597c-3.413,0-5.634-2.147-5.634-5.083c0-2.954,2.257-5.083,5.267-5.083
							c2.9,0,5.138,1.945,5.138,5.12C285.484,469.191,285.447,469.503,285.428,469.741 M277.923,468.071h4.863
							c-0.202-1.248-1.138-2.055-2.422-2.055C279.061,466.016,278.125,466.805,277.923,468.071"/>
					</g>
					<g>
						<path style="fill:#FFFFFF;" d="M297.007,469.741h-7.469c0.275,1.23,1.321,1.982,2.826,1.982c1.046,0,1.798-0.312,2.477-0.954
							l1.523,1.651c-0.918,1.046-2.294,1.597-4.074,1.597c-3.413,0-5.634-2.147-5.634-5.083c0-2.954,2.257-5.083,5.267-5.083
							c2.899,0,5.138,1.945,5.138,5.12C297.062,469.191,297.025,469.503,297.007,469.741 M289.501,468.071h4.863
							c-0.202-1.248-1.138-2.055-2.422-2.055C290.639,466.016,289.703,466.805,289.501,468.071"/>
					</g>
					<g>
						<polygon style="fill:#FFFFFF;" points="303.208,470.145 301.831,471.503 301.831,474.017 298.969,474.017 298.969,460.401 
							301.831,460.401 301.831,468.108 306.016,464.144 309.429,464.144 305.318,468.328 309.796,474.017 306.327,474.017 						"/>
					</g>
					<g>
						<path style="fill:#FFFFFF;" d="M256.601,475.359L256.601,475.359l-2.86-2.86c-0.435,0.508-0.953,0.943-1.534,1.284
							c-0.092,0.069-0.186,0.136-0.283,0.199l3.027,3.027c0.456,0.456,1.195,0.456,1.65,0
							C257.057,476.554,257.057,475.815,256.601,475.359"/>
					</g>
					<g>
						<path style="fill:#FFFFFF;" d="M249.984,463.244c0.221-0.173,0.495-0.281,0.797-0.281c0.042,0,0.083,0.002,0.124,0.006
							c-0.214-0.156-0.478-0.249-0.764-0.249c-0.395,0-0.744,0.18-0.981,0.458c-0.051,0-0.1,0.006-0.151,0.008
							c0.039-0.077,0.064-0.162,0.064-0.255c0-0.234-0.143-0.434-0.346-0.519c0.087,0.126,0.138,0.279,0.138,0.445
							c0,0.122-0.031,0.237-0.081,0.341c-2.811,0.201-5.03,2.539-5.03,5.4c0,2.993,2.426,5.42,5.42,5.42
							c2.993,0,5.42-2.426,5.42-5.42C254.595,465.879,252.593,463.635,249.984,463.244 M247.983,464.656
							c0.435,0,0.844,0.112,1.199,0.309c0.374-0.245,0.82-0.387,1.299-0.387c0.711,0,1.348,0.312,1.784,0.806
							c-0.435-0.379-1.004-0.61-1.627-0.61c-0.449,0-0.87,0.12-1.234,0.329c-0.079,0.046-0.156,0.096-0.229,0.15
							c-0.065-0.048-0.133-0.093-0.204-0.134c-0.369-0.219-0.8-0.344-1.26-0.344c-0.3,0-0.588,0.054-0.854,0.152
							C247.196,464.754,247.578,464.656,247.983,464.656 M251.772,469.098c0.115,0.305,0.181,0.634,0.181,0.979
							c0,1.534-1.244,2.777-2.778,2.777c-1.534,0-2.777-1.243-2.777-2.777c0-0.345,0.066-0.674,0.181-0.979
							c-0.62-0.382-1.035-1.064-1.035-1.846c0-1.197,0.971-2.168,2.168-2.168c0.565,0,1.078,0.218,1.463,0.572
							c0.386-0.354,0.899-0.572,1.464-0.572c1.197,0,2.168,0.971,2.168,2.168C252.807,468.034,252.392,468.716,251.772,469.098"/>
					</g>
					<g>
						<path style="fill:#FFFFFF;" d="M251.666,467.061c0,0.497-0.404,0.901-0.901,0.901c-0.497,0-0.901-0.404-0.901-0.901
							s0.404-0.901,0.901-0.901c0.101,0,0.197,0.017,0.287,0.047c-0.03,0.062-0.045,0.132-0.045,0.204
							c0,0.273,0.221,0.494,0.494,0.494c0.05,0,0.099-0.008,0.146-0.022C251.66,466.941,251.666,467,251.666,467.061"/>
					</g>
					<g>
						<path style="fill:#FFFFFF;" d="M248.255,467.061c0,0.376-0.305,0.681-0.681,0.681c-0.376,0-0.681-0.305-0.681-0.681
							s0.305-0.681,0.681-0.681c0.076,0,0.149,0.013,0.217,0.035c-0.023,0.047-0.034,0.1-0.034,0.155
							c0,0.206,0.167,0.374,0.374,0.374c0.038,0,0.075-0.006,0.11-0.017C248.25,466.97,248.255,467.015,248.255,467.061"/>
					</g>
					<g>
						<g>
							<g>
								<rect x="242.908" y="467.83" style="fill:#FFFFFF;" width="0.616" height="0.616"/>
							</g>
							<g>
								<rect x="254.827" y="467.83" style="fill:#FFFFFF;" width="0.616" height="0.616"/>
							</g>
							<g>
								<path style="fill:#FFFFFF;" d="M255.205,468.082h-0.14c0-3.248-2.642-5.89-5.89-5.89c-3.248,0-5.89,2.642-5.89,5.89h-0.14
									c0-1.611,0.627-3.125,1.766-4.264c1.139-1.139,2.653-1.766,4.264-1.766c1.611,0,3.125,0.627,4.264,1.766
									C254.578,464.957,255.205,466.471,255.205,468.082"/>
							</g>
						</g>
						<g>
							<rect x="248.868" y="461.814" style="fill:#FFFFFF;" width="0.616" height="0.616"/>
						</g>
						<g>
							<rect x="244.95" y="462.052" style="fill:#FFFFFF;" width="8.45" height="0.14"/>
						</g>
						<g>
							<path style="fill:#FFFFFF;" d="M245.174,462.15c0,0.108-0.088,0.196-0.196,0.196c-0.108,0-0.196-0.088-0.196-0.196
								c0-0.108,0.088-0.196,0.196-0.196C245.086,461.954,245.174,462.042,245.174,462.15"/>
						</g>
						<g>
							<path style="fill:#FFFFFF;" d="M253.596,462.15c0,0.108-0.088,0.196-0.196,0.196c-0.108,0-0.196-0.088-0.196-0.196
								c0-0.108,0.088-0.196,0.196-0.196C253.509,461.954,253.596,462.042,253.596,462.15"/>
						</g>
					</g>
				</g>
				<g>
					<path style="fill:#FFFFFF;" d="M314.356,473.409c0,1.559-2.364,1.559-2.364,0C311.993,471.851,314.356,471.851,314.356,473.409
						z"/>
				</g>
				<g>
					<g>
						<g>
							<path style="fill:#FFFFFF;" d="M161.739,466.549l1.772,6.088l1.855-6.088h2.215l-2.823,8.14h-2.33l-0.837-2.396l-0.722-2.708
								l-0.722,2.708l-0.837,2.396h-2.33l-2.839-8.14h2.231l1.855,6.088l1.756-6.088H161.739z"/>
						</g>
						<g>
							<path style="fill:#FFFFFF;" d="M176.713,466.549l1.772,6.088l1.855-6.088h2.215l-2.823,8.14h-2.33l-0.837-2.396l-0.722-2.708
								l-0.722,2.708l-0.837,2.396h-2.33l-2.839-8.14h2.231l1.855,6.088l1.756-6.088H176.713z"/>
						</g>
						<g>
							<path style="fill:#FFFFFF;" d="M191.687,466.549l1.772,6.088l1.855-6.088h2.215l-2.823,8.14h-2.33l-0.837-2.396l-0.722-2.708
								l-0.722,2.708l-0.837,2.396h-2.33l-2.839-8.14h2.231l1.855,6.088l1.756-6.088H191.687z"/>
						</g>
					</g>
					<g>
						<path style="fill:#FFFFFF;" d="M200.908,473.52c0,1.559-2.364,1.559-2.364,0C198.545,471.962,200.908,471.962,200.908,473.52z
							"/>
					</g>
					<g>
						<path style="fill:#FFFFFF;" d="M322.71,473.409c-0.935,0.919-1.919,1.28-3.117,1.28c-2.346,0-4.3-1.411-4.3-4.282
							s1.953-4.284,4.3-4.284c1.149,0,2.035,0.329,2.921,1.199l-1.264,1.329c-0.476-0.428-1.066-0.64-1.623-0.64
							c-1.346,0-2.33,0.985-2.33,2.396c0,1.542,1.05,2.362,2.297,2.362c0.64,0,1.28-0.18,1.772-0.672L322.71,473.409z"/>
					</g>
					<g>
						<path style="fill:#FFFFFF;" d="M331.805,470.472c0,2.33-1.591,4.217-4.217,4.217c-2.626,0-4.201-1.887-4.201-4.217
							c0-2.314,1.609-4.217,4.185-4.217C330.149,466.255,331.805,468.158,331.805,470.472z M325.389,470.472
							c0,1.231,0.739,2.38,2.199,2.38c1.46,0,2.199-1.149,2.199-2.38c0-1.215-0.854-2.396-2.199-2.396
							C326.144,468.077,325.389,469.258,325.389,470.472z"/>
					</g>
					<g>
						<path style="fill:#FFFFFF;" d="M338.572,474.689v-4.332c0-1.068-0.559-2.035-1.658-2.035c-1.082,0-1.722,0.967-1.722,2.035
							v4.332h-2.003v-8.107h1.855l0.148,0.985c0.426-0.82,1.362-1.116,2.133-1.116c0.969,0,1.937,0.394,2.396,1.51
							c0.723-1.149,1.658-1.478,2.708-1.478c2.297,0,3.43,1.412,3.43,3.84v4.365h-2.003v-4.365c0-1.066-0.442-1.97-1.526-1.97
							c-1.082,0-1.756,0.935-1.756,2.003v4.332H338.572z"/>
					</g>
				</g>
			</g>
		</g>
		<g style="opacity:0.61;">
			<g>
				<g>
					<path style="fill:#FFFFFF;" d="M345.988,431.299c-0.006-1.224-0.959-2.121-2.189-2.14c-0.924-0.014-0.832,0.12-0.834-0.867
						c-0.003-1.097-0.007-2.194,0.003-3.292c0.003-0.379-0.112-0.691-0.362-0.976c-2.342-2.668-4.678-5.342-7.019-8.011
						c-0.12-0.137-0.275-0.244-0.414-0.366c-6.214,0-12.427,0-18.641,0c-0.794,0.293-1.14,0.868-1.138,1.709
						c0.01,3.748,0.004,7.496,0.004,11.243c0,0.556-0.003,0.589-0.55,0.551c-1.497-0.102-2.516,0.986-2.497,2.492
						c0.044,3.476,0.013,6.953,0.014,10.429c0.001,1.58,0.867,2.443,2.45,2.449c0.582,0.002,0.582,0.002,0.582,0.6
						c0,2.219-0.001,4.438,0.001,6.657c0.001,1.192,0.58,1.771,1.768,1.771c8.013,0.001,16.027,0.001,24.04,0
						c1.168,0,1.755-0.583,1.757-1.745c0.002-2.256,0-4.512,0.001-6.768c0-0.512,0.002-0.511,0.52-0.515
						c0.271-0.002,0.541,0.008,0.809-0.058c0.996-0.246,1.69-1.044,1.694-2.069C346.003,438.696,346.005,434.997,345.988,431.299z
						 M317.537,417.162c5.337,0,10.674,0,16.01,0c0.548,0,0.554,0.007,0.554,0.561c0.001,2.243-0.001,4.486,0.001,6.73
						c0.001,0.811,0.249,1.059,1.06,1.059c1.91,0.001,3.821,0,5.731,0.001c0.458,0,0.479,0.021,0.481,0.483
						c0.003,0.887,0.002,1.775,0,2.662c-0.001,0.477-0.024,0.498-0.504,0.499c-3.895,0.001-7.79,0-11.684,0
						c-3.882,0-7.765,0-11.647,0c-0.55,0-0.552-0.001-0.552-0.561c-0.001-3.624-0.001-7.247,0-10.871
						C316.987,417.166,316.991,417.162,317.537,417.162z M340.822,451.579c-3.883,0.001-7.766,0-11.65,0c-3.871,0-7.742,0-11.613,0
						c-0.572,0-0.574-0.002-0.574-0.579c-0.001-1.997-0.001-3.994,0.001-5.991c0-0.464,0.023-0.486,0.478-0.487
						c7.803-0.001,15.607-0.001,23.41,0c0.478,0,0.499,0.02,0.499,0.503c0.002,1.997,0.001,3.994,0,5.991
						C341.375,451.574,341.37,451.579,340.822,451.579z"/>
				</g>
				<g>
					<g>
						<rect x="327.418" y="417.053" style="fill:#FFFFFF;" width="1.757" height="1.054"/>
					</g>
					<g>
						<rect x="325.662" y="418.107" style="fill:#FFFFFF;" width="1.757" height="1.054"/>
					</g>
					<g>
						<rect x="327.418" y="419.161" style="fill:#FFFFFF;" width="1.757" height="1.054"/>
					</g>
					<g>
						<rect x="325.662" y="420.215" style="fill:#FFFFFF;" width="1.757" height="1.054"/>
					</g>
					<g>
						<rect x="327.418" y="421.269" style="fill:#FFFFFF;" width="1.757" height="1.054"/>
					</g>
					<g>
						<rect x="325.662" y="422.323" style="fill:#FFFFFF;" width="1.757" height="1.054"/>
					</g>
					<g>
						<rect x="327.418" y="423.378" style="fill:#FFFFFF;" width="1.757" height="1.054"/>
					</g>
					<g>
						<rect x="325.662" y="424.432" style="fill:#FFFFFF;" width="1.757" height="1.054"/>
					</g>
					<g>
						<rect x="327.418" y="425.486" style="fill:#FFFFFF;" width="1.757" height="1.054"/>
					</g>
					<g>
						<rect x="325.662" y="426.54" style="fill:#FFFFFF;" width="1.757" height="1.054"/>
					</g>
					<g>
						<rect x="327.418" y="427.594" style="fill:#FFFFFF;" width="1.757" height="1.054"/>
					</g>
					<g>
						<rect x="325.662" y="428.648" style="fill:#FFFFFF;" width="1.757" height="1.054"/>
					</g>
				</g>
			</g>
			<g>
				<path style="fill:#FFFFFF;" d="M187.637,431.299c-0.006-1.224-0.959-2.121-2.189-2.14c-0.924-0.014-0.832,0.12-0.834-0.867
					c-0.003-1.097-0.007-2.194,0.003-3.292c0.003-0.379-0.112-0.691-0.362-0.976c-2.342-2.668-4.678-5.342-7.019-8.011
					c-0.12-0.137-0.275-0.244-0.414-0.366c-6.214,0-12.427,0-18.641,0c-0.794,0.293-1.14,0.868-1.138,1.709
					c0.01,3.748,0.004,7.496,0.004,11.243c0,0.556-0.003,0.589-0.55,0.551c-1.497-0.102-2.516,0.986-2.497,2.492
					c0.044,3.476,0.013,6.953,0.014,10.429c0.001,1.58,0.867,2.443,2.45,2.449c0.582,0.002,0.582,0.002,0.582,0.6
					c0,2.219-0.001,4.438,0.001,6.657c0.001,1.192,0.58,1.771,1.768,1.771c8.013,0.001,16.027,0.001,24.04,0
					c1.168,0,1.755-0.583,1.757-1.745c0.002-2.256,0-4.512,0.001-6.768c0-0.512,0.002-0.511,0.52-0.515
					c0.271-0.002,0.541,0.008,0.809-0.058c0.996-0.246,1.69-1.044,1.694-2.069C187.652,438.696,187.655,434.997,187.637,431.299z
					 M159.187,417.162c5.337,0,10.674,0,16.01,0c0.548,0,0.554,0.007,0.554,0.561c0.001,2.243-0.001,4.486,0.001,6.73
					c0.001,0.811,0.249,1.059,1.06,1.059c1.91,0.001,3.821,0,5.731,0.001c0.458,0,0.479,0.021,0.481,0.483
					c0.003,0.887,0.002,1.775,0,2.662c-0.001,0.477-0.024,0.498-0.504,0.499c-3.895,0.001-7.79,0-11.684,0
					c-3.882,0-7.765,0-11.647,0c-0.55,0-0.552-0.001-0.552-0.561c-0.001-3.624-0.001-7.247,0-10.871
					C158.636,417.166,158.64,417.162,159.187,417.162z M182.472,451.579c-3.883,0.001-7.766,0-11.65,0c-3.871,0-7.742,0-11.613,0
					c-0.572,0-0.574-0.002-0.574-0.579c-0.001-1.997-0.001-3.994,0.001-5.991c0-0.464,0.023-0.486,0.478-0.487
					c7.803-0.001,15.607-0.001,23.41,0c0.478,0,0.499,0.02,0.499,0.503c0.002,1.997,0.001,3.994,0,5.991
					C183.024,451.574,183.019,451.579,182.472,451.579z"/>
			</g>
			<g>
				<path style="fill:#FFFFFF;" d="M159.779,440.669v-7.897h2.779c0.375,0,0.726,0.061,1.053,0.182
					c0.327,0.121,0.612,0.292,0.855,0.513c0.242,0.221,0.434,0.483,0.573,0.789c0.14,0.305,0.21,0.642,0.21,1.009
					c0,0.375-0.07,0.715-0.21,1.02c-0.14,0.305-0.331,0.568-0.573,0.789c-0.243,0.221-0.528,0.392-0.855,0.513
					c-0.327,0.121-0.678,0.182-1.053,0.182h-1.29v2.901H159.779z M162.58,436.356c0.39,0,0.684-0.111,0.882-0.331
					c0.199-0.22,0.298-0.474,0.298-0.761c0-0.14-0.024-0.276-0.072-0.408c-0.048-0.132-0.121-0.248-0.221-0.347
					c-0.099-0.099-0.223-0.178-0.37-0.237c-0.147-0.059-0.32-0.089-0.518-0.089h-1.312v2.173H162.58z"/>
				<path style="fill:#FFFFFF;" d="M166.308,432.771h1.731l3.177,5.294h0.088l-0.088-1.522v-3.772h1.478v7.897h-1.566l-3.353-5.592
					h-0.088l0.088,1.522v4.07h-1.467V432.771z"/>
				<path style="fill:#FFFFFF;" d="M177.922,436.334h3.872c0.022,0.089,0.04,0.195,0.055,0.32c0.014,0.125,0.022,0.25,0.022,0.375
					c0,0.507-0.077,0.985-0.231,1.434c-0.154,0.449-0.397,0.849-0.728,1.202c-0.353,0.375-0.776,0.666-1.268,0.871
					c-0.493,0.206-1.055,0.309-1.688,0.309c-0.574,0-1.114-0.103-1.622-0.309c-0.507-0.206-0.948-0.492-1.323-0.86
					c-0.375-0.367-0.673-0.803-0.894-1.307c-0.221-0.504-0.331-1.053-0.331-1.649c0-0.595,0.11-1.145,0.331-1.649
					c0.221-0.504,0.518-0.939,0.894-1.307c0.375-0.367,0.816-0.654,1.323-0.86c0.507-0.206,1.048-0.309,1.622-0.309
					c0.64,0,1.211,0.11,1.715,0.331c0.504,0.221,0.935,0.526,1.296,0.915l-1.025,1.004c-0.258-0.272-0.544-0.48-0.861-0.623
					c-0.316-0.143-0.695-0.215-1.136-0.215c-0.361,0-0.703,0.065-1.026,0.193c-0.324,0.129-0.607,0.311-0.85,0.546
					c-0.242,0.235-0.436,0.52-0.579,0.855c-0.143,0.335-0.215,0.708-0.215,1.119c0,0.412,0.072,0.785,0.215,1.12
					c0.143,0.335,0.338,0.62,0.584,0.855c0.246,0.235,0.531,0.418,0.855,0.546c0.323,0.129,0.669,0.193,1.037,0.193
					c0.419,0,0.773-0.061,1.064-0.182c0.29-0.121,0.538-0.278,0.744-0.469c0.148-0.132,0.275-0.3,0.381-0.502
					c0.106-0.202,0.189-0.428,0.248-0.678h-2.482V436.334z"/>
			</g>
			<g>
				<path style="fill:#FFFFFF;" d="M224.019,431.299c-0.006-1.224-0.959-2.121-2.189-2.14c-0.924-0.014-0.832,0.12-0.834-0.867
					c-0.003-1.097-0.007-2.194,0.003-3.292c0.003-0.379-0.112-0.691-0.362-0.976c-2.342-2.668-4.678-5.342-7.019-8.011
					c-0.12-0.137-0.275-0.244-0.414-0.366c-6.214,0-12.427,0-18.641,0c-0.794,0.293-1.14,0.868-1.138,1.709
					c0.01,3.748,0.004,7.496,0.004,11.243c0,0.556-0.003,0.589-0.55,0.551c-1.497-0.102-2.516,0.986-2.497,2.492
					c0.044,3.476,0.013,6.953,0.014,10.429c0.001,1.58,0.867,2.443,2.45,2.449c0.582,0.002,0.582,0.002,0.582,0.6
					c0,2.219-0.001,4.438,0.001,6.657c0.001,1.192,0.58,1.771,1.768,1.771c8.013,0.001,16.027,0.001,24.04,0
					c1.168,0,1.755-0.583,1.757-1.745c0.002-2.256,0-4.512,0.001-6.768c0-0.512,0.002-0.511,0.52-0.515
					c0.271-0.002,0.541,0.008,0.809-0.058c0.997-0.246,1.69-1.044,1.694-2.069C224.034,438.696,224.036,434.997,224.019,431.299z
					 M195.568,417.162c5.337,0,10.674,0,16.01,0c0.548,0,0.554,0.007,0.554,0.561c0.001,2.243-0.001,4.486,0.001,6.73
					c0.001,0.811,0.249,1.059,1.06,1.059c1.91,0.001,3.821,0,5.731,0.001c0.458,0,0.479,0.021,0.481,0.483
					c0.003,0.887,0.002,1.775,0,2.662c-0.001,0.477-0.024,0.498-0.504,0.499c-3.895,0.001-7.79,0-11.684,0
					c-3.882,0-7.765,0-11.647,0c-0.55,0-0.552-0.001-0.552-0.561c-0.001-3.624-0.001-7.247,0-10.871
					C195.018,417.166,195.022,417.162,195.568,417.162z M218.854,451.579c-3.883,0.001-7.766,0-11.65,0c-3.871,0-7.742,0-11.613,0
					c-0.572,0-0.574-0.002-0.574-0.579c-0.001-1.997-0.001-3.994,0.001-5.991c0-0.464,0.023-0.486,0.478-0.487
					c7.803-0.001,15.607-0.001,23.41,0c0.478,0,0.499,0.02,0.499,0.503c0.002,1.997,0.001,3.994,0,5.991
					C219.406,451.574,219.401,451.579,218.854,451.579z"/>
			</g>
			<g>
				<path style="fill:#FFFFFF;" d="M205.111,432.771h1.699l2.967,7.897h-1.644l-0.651-1.886h-3.044l-0.651,1.886h-1.643
					L205.111,432.771z M206.997,437.415l-0.706-1.974l-0.287-0.96h-0.088l-0.287,0.96l-0.706,1.974H206.997z"/>
				<path style="fill:#FFFFFF;" d="M211.331,434.536c-0.125,0-0.245-0.024-0.359-0.072c-0.114-0.048-0.213-0.114-0.298-0.199
					c-0.084-0.084-0.151-0.182-0.198-0.292c-0.048-0.11-0.072-0.232-0.072-0.364s0.024-0.254,0.072-0.364
					c0.048-0.11,0.114-0.208,0.198-0.292c0.084-0.084,0.184-0.151,0.298-0.198c0.114-0.048,0.233-0.072,0.359-0.072
					c0.257,0,0.478,0.09,0.662,0.27c0.184,0.181,0.276,0.399,0.276,0.656s-0.092,0.476-0.276,0.656
					C211.809,434.446,211.589,434.536,211.331,434.536z M210.615,440.669v-5.404h1.445v5.404H210.615z"/>
			</g>
			<g>
				<path style="fill:#FFFFFF;" d="M261.044,431.299c-0.006-1.224-0.959-2.121-2.189-2.14c-0.924-0.014-0.832,0.12-0.834-0.867
					c-0.003-1.097-0.007-2.194,0.003-3.292c0.003-0.379-0.112-0.691-0.362-0.976c-2.342-2.668-4.678-5.342-7.019-8.011
					c-0.12-0.137-0.275-0.244-0.414-0.366c-6.214,0-12.427,0-18.641,0c-0.794,0.293-1.14,0.868-1.138,1.709
					c0.01,3.748,0.004,7.496,0.004,11.243c0,0.556-0.003,0.589-0.55,0.551c-1.497-0.102-2.516,0.986-2.497,2.492
					c0.044,3.476,0.013,6.953,0.014,10.429c0.001,1.58,0.867,2.443,2.45,2.449c0.582,0.002,0.582,0.002,0.582,0.6
					c0,2.219-0.001,4.438,0.001,6.657c0.001,1.192,0.58,1.771,1.768,1.771c8.013,0.001,16.027,0.001,24.04,0
					c1.168,0,1.755-0.583,1.757-1.745c0.002-2.256,0-4.512,0.001-6.768c0-0.512,0.002-0.511,0.52-0.515
					c0.271-0.002,0.541,0.008,0.809-0.058c0.996-0.246,1.69-1.044,1.694-2.069C261.059,438.696,261.061,434.997,261.044,431.299z
					 M232.593,417.162c5.337,0,10.674,0,16.01,0c0.548,0,0.554,0.007,0.554,0.561c0.001,2.243-0.001,4.486,0.001,6.73
					c0.001,0.811,0.249,1.059,1.06,1.059c1.91,0.001,3.821,0,5.731,0.001c0.458,0,0.479,0.021,0.481,0.483
					c0.003,0.887,0.002,1.775,0,2.662c-0.001,0.477-0.024,0.498-0.504,0.499c-3.895,0.001-7.79,0-11.684,0
					c-3.882,0-7.765,0-11.647,0c-0.55,0-0.552-0.001-0.552-0.561c-0.001-3.624-0.001-7.247,0-10.871
					C232.042,417.166,232.047,417.162,232.593,417.162z M255.878,451.579c-3.883,0.001-7.766,0-11.65,0c-3.871,0-7.742,0-11.613,0
					c-0.572,0-0.574-0.002-0.574-0.579c-0.001-1.997-0.001-3.994,0.001-5.991c0-0.464,0.023-0.486,0.478-0.487
					c7.803-0.001,15.607-0.001,23.41,0c0.478,0,0.499,0.02,0.499,0.503c0.002,1.997,0.001,3.994,0,5.991
					C256.431,451.574,256.426,451.579,255.878,451.579z"/>
			</g>
			<g>
				<path style="fill:#FFFFFF;" d="M236.361,440.845c-0.338,0-0.662-0.048-0.971-0.143c-0.309-0.095-0.592-0.239-0.849-0.43
					c-0.257-0.191-0.481-0.425-0.673-0.7c-0.191-0.276-0.342-0.597-0.452-0.965l1.401-0.551c0.103,0.397,0.283,0.726,0.54,0.987
					c0.257,0.261,0.596,0.392,1.015,0.392c0.154,0,0.303-0.02,0.447-0.061c0.143-0.04,0.272-0.099,0.386-0.176
					s0.204-0.175,0.27-0.292c0.066-0.118,0.099-0.254,0.099-0.408c0-0.147-0.026-0.279-0.077-0.397
					c-0.051-0.117-0.138-0.227-0.259-0.331c-0.121-0.103-0.28-0.202-0.475-0.298c-0.195-0.095-0.435-0.195-0.722-0.298l-0.485-0.176
					c-0.213-0.073-0.429-0.173-0.645-0.298c-0.217-0.125-0.413-0.276-0.59-0.452c-0.177-0.176-0.322-0.384-0.436-0.623
					c-0.114-0.239-0.171-0.509-0.171-0.81c0-0.309,0.06-0.597,0.182-0.866c0.121-0.268,0.294-0.503,0.518-0.706
					c0.224-0.202,0.492-0.36,0.805-0.474s0.66-0.171,1.042-0.171c0.397,0,0.74,0.053,1.031,0.16
					c0.291,0.107,0.537,0.243,0.739,0.408c0.202,0.165,0.366,0.348,0.491,0.546c0.125,0.199,0.217,0.386,0.276,0.563l-1.312,0.551
					c-0.074-0.221-0.208-0.419-0.402-0.596c-0.195-0.176-0.462-0.265-0.8-0.265c-0.324,0-0.592,0.075-0.805,0.226
					c-0.213,0.151-0.32,0.348-0.32,0.59c0,0.235,0.103,0.436,0.309,0.601c0.206,0.165,0.533,0.325,0.982,0.48l0.497,0.165
					c0.316,0.111,0.605,0.237,0.866,0.381c0.261,0.143,0.485,0.314,0.673,0.513c0.187,0.199,0.331,0.425,0.43,0.678
					c0.1,0.254,0.149,0.546,0.149,0.877c0,0.412-0.083,0.767-0.248,1.064c-0.165,0.298-0.377,0.542-0.634,0.734
					c-0.258,0.191-0.548,0.335-0.872,0.43C236.986,440.797,236.67,440.845,236.361,440.845z"/>
				<path style="fill:#FFFFFF;" d="M239.516,432.771h1.61l1.633,4.754l0.287,1.015h0.088l0.309-1.015l1.699-4.754h1.61l-2.879,7.897
					h-1.566L239.516,432.771z"/>
				<path style="fill:#FFFFFF;" d="M251.097,436.334h3.871c0.022,0.089,0.04,0.195,0.055,0.32c0.015,0.125,0.023,0.25,0.023,0.375
					c0,0.507-0.078,0.985-0.232,1.434c-0.154,0.449-0.397,0.849-0.728,1.202c-0.353,0.375-0.775,0.666-1.268,0.871
					c-0.493,0.206-1.055,0.309-1.688,0.309c-0.574,0-1.114-0.103-1.621-0.309c-0.507-0.206-0.949-0.492-1.324-0.86
					c-0.375-0.367-0.673-0.803-0.894-1.307c-0.22-0.504-0.331-1.053-0.331-1.649c0-0.595,0.11-1.145,0.331-1.649
					c0.221-0.504,0.518-0.939,0.894-1.307c0.375-0.367,0.816-0.654,1.324-0.86c0.507-0.206,1.047-0.309,1.621-0.309
					c0.64,0,1.211,0.11,1.715,0.331c0.504,0.221,0.936,0.526,1.296,0.915l-1.026,1.004c-0.257-0.272-0.544-0.48-0.861-0.623
					c-0.316-0.143-0.694-0.215-1.136-0.215c-0.36,0-0.702,0.065-1.026,0.193c-0.323,0.129-0.607,0.311-0.849,0.546
					c-0.243,0.235-0.436,0.52-0.579,0.855c-0.143,0.335-0.215,0.708-0.215,1.119c0,0.412,0.072,0.785,0.215,1.12
					c0.143,0.335,0.338,0.62,0.585,0.855c0.246,0.235,0.531,0.418,0.854,0.546c0.324,0.129,0.669,0.193,1.037,0.193
					c0.419,0,0.774-0.061,1.064-0.182c0.29-0.121,0.539-0.278,0.745-0.469c0.147-0.132,0.274-0.3,0.38-0.502
					c0.107-0.202,0.189-0.428,0.248-0.678h-2.482V436.334z"/>
			</g>
			<g>
				<path style="fill:#FFFFFF;" d="M297.3,431.299c-0.006-1.224-0.959-2.121-2.189-2.14c-0.924-0.014-0.832,0.12-0.834-0.867
					c-0.003-1.097-0.007-2.194,0.003-3.292c0.003-0.379-0.112-0.691-0.362-0.976c-2.342-2.668-4.678-5.342-7.019-8.011
					c-0.12-0.137-0.275-0.244-0.414-0.366c-6.214,0-12.427,0-18.641,0c-0.794,0.293-1.14,0.868-1.138,1.709
					c0.01,3.748,0.004,7.496,0.004,11.243c0,0.556-0.003,0.589-0.55,0.551c-1.497-0.102-2.516,0.986-2.497,2.492
					c0.044,3.476,0.013,6.953,0.014,10.429c0.001,1.58,0.867,2.443,2.45,2.449c0.582,0.002,0.582,0.002,0.582,0.6
					c0,2.219-0.001,4.438,0.001,6.657c0.001,1.192,0.58,1.771,1.768,1.771c8.013,0.001,16.027,0.001,24.04,0
					c1.168,0,1.755-0.583,1.757-1.745c0.002-2.256,0-4.512,0.001-6.768c0-0.512,0.002-0.511,0.52-0.515
					c0.271-0.002,0.541,0.008,0.809-0.058c0.996-0.246,1.69-1.044,1.694-2.069C297.315,438.696,297.318,434.997,297.3,431.299z
					 M268.85,417.162c5.337,0,10.674,0,16.01,0c0.548,0,0.554,0.007,0.554,0.561c0.001,2.243-0.001,4.486,0.001,6.73
					c0.001,0.811,0.249,1.059,1.06,1.059c1.91,0.001,3.821,0,5.731,0.001c0.458,0,0.479,0.021,0.481,0.483
					c0.003,0.887,0.002,1.775,0,2.662c-0.001,0.477-0.024,0.498-0.504,0.499c-3.895,0.001-7.79,0-11.684,0
					c-3.882,0-7.765,0-11.647,0c-0.55,0-0.552-0.001-0.552-0.561c-0.001-3.624-0.001-7.247,0-10.871
					C268.299,417.166,268.303,417.162,268.85,417.162z M292.135,451.579c-3.883,0.001-7.766,0-11.65,0c-3.871,0-7.742,0-11.613,0
					c-0.572,0-0.574-0.002-0.574-0.579c-0.001-1.997-0.001-3.994,0.001-5.991c0-0.464,0.023-0.486,0.478-0.487
					c7.803-0.001,15.607-0.001,23.41,0c0.478,0,0.499,0.02,0.499,0.503c0.001,1.997,0.001,3.994,0,5.991
					C292.687,451.574,292.682,451.579,292.135,451.579z"/>
			</g>
			<g>
				<path style="fill:#FFFFFF;" d="M272.966,434.183v1.831h3.165v1.412h-3.165v1.831h3.518v1.412h-5.007v-7.897h5.007v1.412H272.966
					z"/>
				<path style="fill:#FFFFFF;" d="M277.852,440.669v-7.897h2.779c0.375,0,0.726,0.061,1.053,0.182
					c0.327,0.121,0.612,0.292,0.855,0.513c0.243,0.221,0.434,0.483,0.574,0.789c0.14,0.305,0.209,0.642,0.209,1.009
					c0,0.375-0.07,0.715-0.209,1.02c-0.14,0.305-0.331,0.568-0.574,0.789c-0.243,0.221-0.528,0.392-0.855,0.513
					c-0.327,0.121-0.678,0.182-1.053,0.182h-1.29v2.901H277.852z M280.653,436.356c0.389,0,0.684-0.111,0.882-0.331
					c0.199-0.22,0.298-0.474,0.298-0.761c0-0.14-0.024-0.276-0.072-0.408c-0.048-0.132-0.121-0.248-0.221-0.347
					c-0.099-0.099-0.222-0.178-0.37-0.237c-0.147-0.059-0.32-0.089-0.518-0.089h-1.312v2.173H280.653z"/>
				<path style="fill:#FFFFFF;" d="M286.797,440.845c-0.338,0-0.662-0.048-0.971-0.143c-0.309-0.095-0.592-0.239-0.849-0.43
					c-0.257-0.191-0.482-0.425-0.673-0.7c-0.191-0.276-0.342-0.597-0.452-0.965l1.401-0.551c0.103,0.397,0.283,0.726,0.541,0.987
					c0.257,0.261,0.595,0.392,1.015,0.392c0.154,0,0.303-0.02,0.447-0.061c0.143-0.04,0.272-0.099,0.386-0.176
					c0.114-0.077,0.204-0.175,0.27-0.292c0.066-0.118,0.1-0.254,0.1-0.408c0-0.147-0.026-0.279-0.077-0.397
					c-0.051-0.117-0.138-0.227-0.259-0.331c-0.121-0.103-0.279-0.202-0.474-0.298c-0.195-0.095-0.436-0.195-0.723-0.298
					l-0.485-0.176c-0.213-0.073-0.428-0.173-0.645-0.298c-0.217-0.125-0.414-0.276-0.59-0.452c-0.176-0.176-0.322-0.384-0.436-0.623
					c-0.114-0.239-0.171-0.509-0.171-0.81c0-0.309,0.061-0.597,0.182-0.866c0.121-0.268,0.294-0.503,0.518-0.706
					c0.224-0.202,0.493-0.36,0.805-0.474c0.312-0.114,0.66-0.171,1.042-0.171c0.397,0,0.741,0.053,1.031,0.16
					c0.29,0.107,0.537,0.243,0.739,0.408c0.202,0.165,0.365,0.348,0.491,0.546c0.125,0.199,0.217,0.386,0.276,0.563l-1.312,0.551
					c-0.074-0.221-0.208-0.419-0.403-0.596c-0.195-0.176-0.462-0.265-0.799-0.265c-0.324,0-0.592,0.075-0.805,0.226
					c-0.213,0.151-0.32,0.348-0.32,0.59c0,0.235,0.103,0.436,0.309,0.601c0.206,0.165,0.533,0.325,0.982,0.48l0.496,0.165
					c0.316,0.111,0.605,0.237,0.866,0.381c0.261,0.143,0.485,0.314,0.673,0.513c0.187,0.199,0.331,0.425,0.43,0.678
					c0.099,0.254,0.149,0.546,0.149,0.877c0,0.412-0.083,0.767-0.248,1.064c-0.165,0.298-0.377,0.542-0.634,0.734
					c-0.258,0.191-0.548,0.335-0.872,0.43C287.422,440.797,287.105,440.845,286.797,440.845z"/>
			</g>
			<g>
				<path style="fill:#FFFFFF;" d="M321.394,439.168l4.004-4.985h-3.827v-1.412h5.559v1.5l-3.96,4.985h4.004v1.412h-5.779V439.168z"
					/>
				<path style="fill:#FFFFFF;" d="M328.409,432.771h1.489v7.897h-1.489V432.771z"/>
				<path style="fill:#FFFFFF;" d="M331.486,440.669v-7.897h2.779c0.375,0,0.726,0.061,1.053,0.182
					c0.327,0.121,0.612,0.292,0.855,0.513s0.434,0.483,0.574,0.789c0.14,0.305,0.209,0.642,0.209,1.009
					c0,0.375-0.07,0.715-0.209,1.02c-0.14,0.305-0.331,0.568-0.574,0.789c-0.243,0.221-0.528,0.392-0.855,0.513
					c-0.327,0.121-0.678,0.182-1.053,0.182h-1.29v2.901H331.486z M334.288,436.356c0.389,0,0.684-0.111,0.882-0.331
					c0.199-0.22,0.298-0.474,0.298-0.761c0-0.14-0.024-0.276-0.072-0.408c-0.048-0.132-0.121-0.248-0.221-0.347
					c-0.099-0.099-0.222-0.178-0.37-0.237c-0.147-0.059-0.32-0.089-0.518-0.089h-1.312v2.173H334.288z"/>
			</g>
		</g>
		<g style="opacity:0.61;">
			<path style="fill:#FFFFFF;" d="M300.133,433.27h9.067v2.242h-9.067V433.27z M300.133,437.136h9.067v2.243h-9.067V437.136z"/>
		</g>
	</g>
	<g style="opacity:0.61;">
		<path style="fill:#FFFFFF;" d="M156.756,478.878h1.607c1.263,0,2.114,0.812,2.114,1.974c0,1.161-0.851,1.973-2.114,1.973h-1.607
			V478.878z M158.34,482.464c1.049,0,1.725-0.665,1.725-1.612c0-0.947-0.677-1.613-1.725-1.613h-1.167v3.225H158.34z"/>
		<path style="fill:#FFFFFF;" d="M165.139,480.851c0-1.15,0.879-2.007,2.075-2.007c1.184,0,2.069,0.851,2.069,2.007
			c0,1.156-0.885,2.007-2.069,2.007C166.019,482.858,165.139,482.002,165.139,480.851z M168.866,480.851
			c0-0.942-0.705-1.635-1.652-1.635c-0.953,0-1.663,0.693-1.663,1.635c0,0.941,0.71,1.635,1.663,1.635
			C168.162,482.486,168.866,481.793,168.866,480.851z"/>
		<path style="fill:#FFFFFF;" d="M179.596,478.878l-1.331,3.947h-0.44l-1.156-3.366l-1.161,3.366h-0.434l-1.331-3.947h0.429
			l1.139,3.394l1.178-3.394h0.389l1.161,3.411l1.156-3.411H179.596z"/>
		<path style="fill:#FFFFFF;" d="M187.731,478.878v3.947h-0.344l-2.537-3.202v3.202h-0.417v-3.947h0.344l2.543,3.203v-3.203H187.731
			z"/>
		<path style="fill:#FFFFFF;" d="M193.093,478.878h0.417v3.586h2.21v0.361h-2.627V478.878z"/>
		<path style="fill:#FFFFFF;" d="M200.061,480.851c0-1.15,0.879-2.007,2.075-2.007c1.184,0,2.069,0.851,2.069,2.007
			c0,1.156-0.885,2.007-2.069,2.007C200.941,482.858,200.061,482.002,200.061,480.851z M203.788,480.851
			c0-0.942-0.705-1.635-1.652-1.635c-0.953,0-1.663,0.693-1.663,1.635c0,0.941,0.71,1.635,1.663,1.635
			C203.083,482.486,203.788,481.793,203.788,480.851z"/>
		<path style="fill:#FFFFFF;" d="M211.636,481.77h-2.199l-0.474,1.054h-0.434l1.804-3.947h0.412l1.804,3.947h-0.44L211.636,481.77z
			 M211.484,481.432l-0.947-2.12l-0.947,2.12H211.484z"/>
		<path style="fill:#FFFFFF;" d="M217.28,478.878h1.607c1.263,0,2.114,0.812,2.114,1.974c0,1.161-0.851,1.973-2.114,1.973h-1.607
			V478.878z M218.864,482.464c1.049,0,1.725-0.665,1.725-1.612c0-0.947-0.677-1.613-1.725-1.613h-1.167v3.225H218.864z"/>
		<path style="fill:#FFFFFF;" d="M234.041,481.77h-2.199l-0.474,1.054h-0.434l1.804-3.947h0.412l1.804,3.947h-0.44L234.041,481.77z
			 M233.889,481.432l-0.947-2.12l-0.947,2.12H233.889z"/>
		<path style="fill:#FFFFFF;" d="M239.685,478.878h0.417v3.586h2.21v0.361h-2.627V478.878z"/>
		<path style="fill:#FFFFFF;" d="M247.082,478.878h0.417v3.586h2.21v0.361h-2.627V478.878z"/>
		<path style="fill:#FFFFFF;" d="M260.449,479.239v1.551h2.041v0.361h-2.041v1.675h-0.417v-3.947h2.706v0.361H260.449z"/>
		<path style="fill:#FFFFFF;" d="M267.678,478.878h0.417v3.947h-0.417V478.878z"/>
		<path style="fill:#FFFFFF;" d="M273.456,478.878h0.417v3.586h2.21v0.361h-2.627V478.878z"/>
		<path style="fill:#FFFFFF;" d="M283.644,482.464v0.361h-2.791v-3.947h2.706v0.361h-2.289v1.404h2.041v0.355h-2.041v1.466H283.644z
			"/>
		<path style="fill:#FFFFFF;" d="M294.672,479.239v1.551h2.041v0.361h-2.041v1.675h-0.417v-3.947h2.706v0.361H294.672z"/>
		<path style="fill:#FFFFFF;" d="M301.5,480.851c0-1.15,0.879-2.007,2.075-2.007c1.184,0,2.069,0.851,2.069,2.007
			c0,1.156-0.885,2.007-2.069,2.007C302.379,482.858,301.5,482.002,301.5,480.851z M305.226,480.851
			c0-0.942-0.705-1.635-1.652-1.635c-0.953,0-1.663,0.693-1.663,1.635c0,0.941,0.71,1.635,1.663,1.635
			C304.522,482.486,305.226,481.793,305.226,480.851z"/>
		<path style="fill:#FFFFFF;" d="M313.351,482.825l-0.902-1.269c-0.102,0.011-0.203,0.017-0.316,0.017h-1.06v1.252h-0.417v-3.947
			h1.477c1.004,0,1.613,0.507,1.613,1.353c0,0.62-0.327,1.054-0.902,1.24l0.964,1.353H313.351z M313.328,480.231
			c0-0.632-0.417-0.992-1.207-0.992h-1.048v1.979h1.048C312.911,481.218,313.328,480.851,313.328,480.231z"/>
		<path style="fill:#FFFFFF;" d="M322.907,478.878v3.947h-0.4v-3.158l-1.551,2.656h-0.197l-1.551-2.639v3.14h-0.4v-3.947h0.344
			l1.714,2.926l1.697-2.926H322.907z"/>
		<path style="fill:#FFFFFF;" d="M330.744,481.77h-2.199l-0.473,1.054h-0.434l1.804-3.947h0.411l1.804,3.947h-0.44L330.744,481.77z
			 M330.592,481.432l-0.947-2.12l-0.947,2.12H330.592z"/>
		<path style="fill:#FFFFFF;" d="M336.957,479.239h-1.387v-0.361h3.192v0.361h-1.387v3.586h-0.417V479.239z"/>
		<path style="fill:#FFFFFF;" d="M343.063,482.346l0.164-0.321c0.282,0.276,0.784,0.479,1.302,0.479c0.739,0,1.06-0.31,1.06-0.699
			c0-1.083-2.43-0.417-2.43-1.877c0-0.581,0.451-1.083,1.455-1.083c0.446,0,0.908,0.13,1.224,0.35l-0.141,0.333
			c-0.338-0.22-0.733-0.327-1.083-0.327c-0.722,0-1.043,0.321-1.043,0.716c0,1.083,2.43,0.429,2.43,1.866
			c0,0.581-0.462,1.077-1.472,1.077C343.937,482.858,343.356,482.65,343.063,482.346z"/>
	</g>
</g>
<g>
</g>
<g>
	<g>
		<path style="fill:#415870;" d="M133.27,240.764c1.015-4.559,2.223-9.067,3.623-13.524c1.401-4.451,2.988-8.84,4.757-13.161
			c1.771-4.317,3.725-8.557,5.857-12.707c2.132-4.156,4.44-8.211,6.918-12.168c2.387-3.799,4.91-7.513,7.564-11.131
			c2.659-3.614,5.451-7.128,8.369-10.535c2.915-3.408,5.959-6.708,9.123-9.895c3.159-3.184,6.437-6.248,9.827-9.186
			c-2.597,2.251-5.126,4.576-7.587,6.974c-2.455,2.399-4.848,4.871-7.167,7.405c-2.319,2.535-4.559,5.137-6.731,7.808
			c-2.166,2.665-4.258,5.392-6.266,8.176c1.423-1.985,2.892-3.935,4.417-5.846c1.525-1.911,3.096-3.782,4.718-5.614
			c1.616-1.831,3.283-3.618,4.995-5.358c1.712-1.746,3.47-3.442,5.273-5.098c1.82-1.661,3.68-3.283,5.585-4.848
			c1.9-1.571,3.844-3.09,5.823-4.559c1.979-1.469,3.998-2.886,6.05-4.253s4.139-2.682,6.26-3.941
			c-0.748,0.743-1.508,1.474-2.279,2.194c-0.771,0.72-1.554,1.429-2.342,2.126c-0.788,0.697-1.588,1.384-2.399,2.064
			c-0.805,0.675-1.627,1.338-2.455,1.996c-3.453,2.966-6.402,5.931-6.861,7.768c-4.564,4.124-8.927,8.465-13.076,13.008
			c-4.151,4.536-8.086,9.271-11.788,14.187c-3.697,4.916-7.161,10.002-10.382,15.242c-3.215,5.245-6.181,10.637-8.885,16.166
			c-2.716,5.546-5.143,11.233-7.281,17.028c-2.132,5.795-3.969,11.698-5.5,17.68c-3.059,11.977-4.887,24.236-5.455,36.584
			c-0.527-2.041-0.913-4.117-1.151-6.215c-0.238-2.098-0.329-4.207-0.267-6.317c0.113-4.223,0.819-8.409,2.098-12.435
			C128.751,253.352,131.688,247.392,133.27,240.764 M254.948,118.026c-4.599,1.452-9.147,3.059-13.637,4.82
			c1.094-0.505,2.206-0.987,3.323-1.44c1.117-0.454,2.245-0.879,3.385-1.281c1.14-0.403,2.285-0.777,3.442-1.128
			S253.78,118.32,254.948,118.026 M312.393,440.515c5.041-0.55,10.053-1.321,14.822-2.092c-1.213,0.289-2.438,0.544-3.663,0.777
			c-1.23,0.227-2.461,0.431-3.703,0.607c-1.236,0.17-2.478,0.318-3.72,0.437C314.888,440.362,313.641,440.452,312.393,440.515
			 M141.055,304.435l2.211,8.233c0.794,5.375,1.848,10.711,3.164,15.99c1.31,5.273,2.869,10.484,4.684,15.61
			c3.623,10.259,8.228,20.145,13.75,29.519c-1.631-2.624-3.2-5.286-4.706-7.984c-1.503-2.699-2.949-5.432-4.326-8.199
			c-1.372-2.767-2.688-5.563-3.929-8.392c-1.247-2.824-2.427-5.682-3.538-8.568c-1.111-2.886-2.098-5.818-2.966-8.789
			c-0.862-2.971-1.599-5.976-2.211-9.004c-0.612-3.034-1.1-6.09-1.452-9.163C141.379,310.615,141.152,307.525,141.055,304.435
			 M144.509,281.379c0.028-5.228,0.397-10.45,1.094-15.627c0.697-5.183,1.724-10.314,3.079-15.361
			c1.35-5.052,3.028-10.008,5.012-14.845c1.985-4.831,4.281-9.537,6.872-14.079c-2.467,4.599-4.667,9.333-6.589,14.181
			c-1.917,4.854-3.555,9.81-4.905,14.845c-1.355,5.041-2.41,10.15-3.175,15.31C145.138,270.963,144.673,276.163,144.509,281.379
			 M417.111,350.386c-0.414-0.147-0.533-0.607-0.516-1.157c0.04-0.113,0.079-0.238,0.108-0.357c0.028-0.125,0.057-0.244,0.074-0.369
			c0.017-0.125,0.028-0.25,0.028-0.38c0.006-0.125,0.006-0.249-0.006-0.374c0.975-1.44,1.928-2.897,2.852-4.377
			c0.919-1.474,1.814-2.971,2.682-4.48c0.862-1.508,1.701-3.039,2.506-4.576c0.811-1.542,1.588-3.102,2.336-4.672
			c-0.04,0.437-0.091,0.868-0.153,1.298c-0.057,0.437-0.125,0.868-0.198,1.298c-0.074,0.431-0.153,0.856-0.244,1.287
			c-0.091,0.425-0.187,0.851-0.295,1.276c-0.352,0.641-0.714,1.276-1.094,1.9c-0.756,1.253-1.566,2.473-2.427,3.657
			c-0.431,0.595-0.873,1.179-1.327,1.752c-0.448,0.635-0.879,1.281-1.287,1.939c-0.408,0.663-0.788,1.338-1.151,2.024
			c-0.357,0.692-0.692,1.389-1.004,2.104c-0.312,0.709-0.595,1.435-0.856,2.166 M306.836,440.855l-0.533,0.227
			c-1.735,0.119-3.459,0.232-5.16,0.295l-0.624-0.147C302.623,441.082,304.715,440.946,306.836,440.855 M412.161,357.758
			c-0.181-0.102-0.363-0.187-0.556-0.266c-0.187-0.074-0.386-0.136-0.584-0.181c-0.198-0.045-0.403-0.079-0.607-0.096
			c-0.204-0.017-0.408-0.017-0.612-0.006c2.444-2.966,4.774-6.135,6.952-9.356l-0.051,0.346c-0.017,0.113-0.034,0.227-0.045,0.34
			c-0.017,0.119-0.028,0.232-0.04,0.346c-0.011,0.119-0.017,0.232-0.023,0.346c-0.788,2.552-3.663,5.551-4.451,8.528
			 M339.565,403.12c-2.279,0.726-3.929,2.829-4.95,3.527c-6.373,0.431-12.662,0.459-19.925,0.403
			c-1.094,0.533-3.453,0.726-5.676,1.644c-1.367-0.624-2.801-1.128-4.315-1.644c4.094,0.045,8.194-0.102,12.27-0.442
			c4.083-0.34,8.148-0.873,12.18-1.593c4.032-0.72,8.029-1.627,11.976-2.722s7.836-2.37,11.664-3.827
			c-1.06,0.482-2.132,0.947-3.209,1.384c-1.083,0.442-2.172,0.851-3.272,1.242c-1.1,0.386-2.211,0.754-3.328,1.089
			c-1.111,0.34-2.24,0.652-3.368,0.941"/>
		<path style="fill:#415870;" d="M266.305,142.804c12.112-3.912,25.958-5.115,39.431-4.593c13.478,0.516,26.684,2.489,39.255,3.776
			c-13.665-5.426-31.203-8.477-45.957-9.265c-14.748-0.788-26.503-0.21-29.57-3.175c-3.068-2.966,7.53-5.931,22.233-6.492
			c1.962-0.057,3.924-0.074,5.88-0.051c1.962,0.023,3.918,0.085,5.88,0.181c1.956,0.096,3.912,0.232,5.863,0.408
			c1.951,0.17,3.901,0.386,5.846,0.629c7.87,0.953,15.355,2.433,21.422,3.589c-3.068-1.378-3.068-1.378-6.181-2.665
			c3.124,1.287,6.181,2.62,9.203,2.461c-2.942-1.312-5.939-2.498-8.982-3.555c-1.015-0.352-2.03-0.692-3.056-1.015
			c-4.355-1.48-8.449-2.801-10.24-4.077c2.058-0.431,4.117-0.771,6.209-1.111c-8.358-3.68-21.212-5.931-34.305-6.3
			c-13.087-0.374-26.327,0.8-36.023,0.947c6.022-0.686,12.061-1.151,18.116-1.389c6.05-0.244,12.112-0.255,18.167-0.045
			c6.05,0.21,12.095,0.646,18.116,1.304c6.022,0.663,12.015,1.548,17.975,2.648c6.385,1.213,12.713,2.744,18.95,4.582
			c6.237,1.831,12.378,3.981,18.406,6.419c6.022,2.444,11.925,5.188,17.68,8.211c5.755,3.026,11.357,6.336,16.784,9.917
			c5.653,3.731,11.091,7.785,16.279,12.14c5.188,4.355,10.121,8.999,14.782,13.92c4.655,4.916,9.027,10.099,13.093,15.519
			c4.06,5.421,7.814,11.068,11.233,16.914c3.396,5.829,6.441,11.856,9.118,18.048c2.676,6.192,4.973,12.537,6.884,19.007
			c1.917,6.47,3.436,13.047,4.559,19.698c1.123,6.651,1.849,13.365,2.166,20.101c1.004,14.34,0.431,28.737-1.707,42.946
			c-2.144,14.21-5.84,28.142-11.023,41.546c-5.183,13.399-11.828,26.191-19.806,38.138s-17.249,22.987-27.637,32.91
			c-1.559,1.298-3.158,2.557-4.786,3.771c-1.627,1.219-3.283,2.393-4.973,3.516c-3.379,2.259-6.877,4.336-10.479,6.22
			c-2.206,1.185-4.434,2.319-6.691,3.408c-2.257,1.083-4.536,2.115-6.838,3.096c-2.308,0.981-4.633,1.905-6.98,2.778
			c-2.342,0.873-4.706,1.695-7.094,2.461c-29.882,11.981-63.104,16.194-95.776,13.24c-34.747-4.445-67.317-20.118-93.395-43.457
			c-26.072-23.344-46.207-54.48-57.366-89.907c-2.302-7.042-2.552-16.047-1.038-18.7c0.737-1.332,1.848-1.123,3.345,1.486
			c1.497,2.608,3.425,7.712,6.509,15.894c2.665,6.714,5.67,13.285,8.993,19.698c3.317,6.407,6.957,12.65,10.904,18.7
			c3.946,6.045,8.189,11.89,12.713,17.515c4.531,5.625,9.333,11.023,14.397,16.166c-1.956-0.425-5.143-3.334-8.33-6.776
			c-0.714-0.822-1.435-1.639-2.172-2.444c-1.471-1.609-2.984-3.181-4.536-4.712c-0.777-0.76-1.565-1.514-2.364-2.257
			c1.406,2.121,2.869,4.213,4.383,6.26c1.514,2.053,3.085,4.06,4.701,6.033c1.616,1.973,3.277,3.901,4.995,5.789
			c1.712,1.883,3.476,3.725,5.279,5.523c1.797,1.78,3.635,3.516,5.517,5.2c1.883,1.69,3.81,3.328,5.778,4.916
			c1.962,1.588,3.969,3.124,6.016,4.61s4.128,2.92,6.249,4.298c-5.965-3.881-11.697-8.107-17.169-12.656
			c-2.739-2.274-5.409-4.621-8.006-7.048c-2.603-2.427-5.132-4.933-7.587-7.507c3.192,3.362,6.515,6.606,9.951,9.719
			c3.43,3.113,6.98,6.101,10.637,8.953s7.417,5.568,11.272,8.142c3.853,2.579,7.802,5.012,11.839,7.292
			c8.421,4.763,17.232,8.8,26.338,12.066c4.548,1.633,9.163,3.079,13.835,4.321c4.672,1.242,9.396,2.285,14.159,3.13
			c6.952,1.332,13.268,4.015,20.634,5.812c2.109,0.556,4.253,0.97,6.413,1.23c2.166,0.261,4.343,0.374,6.521,0.335
			c2.183-0.034,4.355-0.221,6.509-0.561c2.149-0.335,4.281-0.822,6.368-1.452c-6.39,0.011-12.781-0.306-19.137-0.947
			c-6.358-0.646-12.679-1.615-18.939-2.903c-6.259-1.294-12.447-2.906-18.542-4.831c-6.095-1.928-12.083-4.168-17.952-6.708
			c-5.84-2.535-11.556-5.341-17.13-8.42c-5.574-3.073-11-6.419-16.251-10.014c-5.255-3.595-10.336-7.438-15.225-11.516
			c-4.888-4.083-9.577-8.392-14.057-12.917c0.028,0,0.051,0.006,0.074,0.006h0.153c0.023,0,0.045-0.006,0.074-0.006
			c-3.856-3.827-7.524-7.831-11-11.998c-3.476-4.169-6.755-8.498-9.827-12.974c-3.072-4.477-5.935-9.093-8.579-13.835
			c-2.637-4.746-5.058-9.611-7.241-14.578c2.966,6.096,6.583,12.044,9.277,17.396c-14.289-28.47-22.029-59.169-21.757-90.202
			c0.471,5.5,1.162,10.978,2.07,16.427c0.913,5.443,2.041,10.853,3.379,16.206c1.344,5.358,2.903,10.66,4.667,15.888
			c1.769,5.234,3.742,10.388,5.92,15.463c4.42,10.324,9.772,20.224,15.99,29.576c3.107,4.672,6.424,9.203,9.94,13.575
			c3.515,4.375,7.23,8.587,11.131,12.622c11.755,12.172,25.231,22.555,39.998,30.818c4.916,2.75,9.963,5.256,15.123,7.513
			c10.071,4.388,20.57,7.721,31.328,9.946c5.375,1.117,10.807,1.951,16.268,2.501c5.466,0.556,10.949,0.822,16.444,0.811
			c-11.981-2.092-25.754-3.516-38.96-6.736c-13.206-3.215-25.63-8.137-33.755-14.913c8.698,4.49,17.757,8.244,27.081,11.221
			c9.323,2.981,18.881,5.172,28.572,6.549c9.69,1.384,19.483,1.945,29.27,1.69c9.781-0.261,19.528-1.338,29.134-3.226l-8.432,2.535
			c3.187-0.249,6.362-0.635,9.52-1.157c3.157-0.515,6.292-1.162,9.396-1.939c3.102-0.783,6.175-1.69,9.203-2.722
			c3.022-1.038,6.01-2.194,8.936-3.476c2.943-1.287,5.852-2.642,8.727-4.06c2.875-1.423,5.716-2.915,8.517-4.474
			c2.807-1.559,5.568-3.181,8.296-4.876c2.727-1.69,5.415-3.442,8.057-5.262c1.866-1.23,3.72-2.478,5.557-3.793l-5.557,3.793
			c-4.718,3.09-9.583,5.948-14.573,8.568c-4.995,2.62-10.11,4.995-15.332,7.122c-5.222,2.126-10.541,3.998-15.945,5.608
			c-5.404,1.616-10.881,2.966-16.415,4.043c9.696-2.966,19.897-6.152,31.827-10.881c-6.923,1.48-16.41,4.298-26.106,6.152
			c-3.113,0.799-6.26,1.508-9.418,2.121s-6.339,1.128-9.532,1.554c-3.187,0.42-6.39,0.749-9.605,0.981
			c-3.209,0.227-6.424,0.363-9.645,0.403c4.735-0.176,9.452-0.601,14.136-1.281c9.38-1.36,18.588-3.719,27.467-7.037
			c4.434-1.661,8.778-3.555,13.013-5.682c-24.966,8.086-52.274,11.477-78.113,7.417c3.55,0.357,7.105,0.595,10.671,0.714
			c3.561,0.119,7.128,0.113,10.688-0.011c3.567-0.125,7.122-0.369,10.671-0.731c3.544-0.363,7.076-0.851,10.592-1.457
			c6.01-0.703,11.981-1.752,17.878-3.147c11.797-2.787,23.233-6.923,34.084-12.327c5.421-2.705,10.677-5.716,15.752-9.021
			l-2.268,1.678c1.571-1.026,3.085-2.138,4.599-3.221c1.996-1.361,3.964-2.773,5.897-4.23c1.934-1.452,3.833-2.954,5.699-4.496
			c1.86-1.548,3.691-3.136,5.477-4.763c1.786-1.633,3.538-3.306,5.251-5.018c4.418-4.718,8.331-9.885,11.675-15.417
			c1.117-1.843,2.166-3.72,3.147-5.636l2.387-3.527c-0.947,2.608-1.123,4.134,2.121,0c1.769-2.33,3.442-4.735,5.013-7.201
			c1.571-2.467,3.039-4.995,4.406-7.587c1.367-2.586,2.625-5.228,3.776-7.916c1.145-2.688,2.189-5.426,3.113-8.199
			c4.122-11.448,7.145-23.537,10.377-36.17c1.673-6.657,2.075-15.956,1.247-25.828c0.108-0.442,0.181-0.896,0.21-1.35
			c0.034-0.454,0.028-0.913-0.017-1.367c-0.045-0.454-0.13-0.902-0.25-1.344c-0.125-0.437-0.284-0.868-0.482-1.281
			c-0.232-2.121-0.533-4.253-0.856-6.373c-0.125-1.298-0.278-2.591-0.459-3.884s-0.386-2.58-0.624-3.861
			c-0.238-1.281-0.505-2.557-0.799-3.827c-0.295-1.27-0.612-2.535-0.964-3.788c1.021,4.978,2.047,10.138,2.846,15.361l0.59,5.84
			c-0.244-0.42-0.465-0.851-0.663-1.298c-0.198-0.442-0.374-0.896-0.522-1.361c-0.147-0.465-0.272-0.936-0.369-1.412
			c-0.096-0.476-0.164-0.958-0.21-1.446c0.357,4.531,0.522,9.067,0.493,13.609c-0.028,4.536-0.25,9.078-0.658,13.597
			c-0.408,4.519-1.015,9.021-1.803,13.495c-0.794,4.468-1.769,8.902-2.937,13.291c-1.191,4.462-2.557,8.874-4.105,13.223
			c-1.542,4.355-3.266,8.641-5.154,12.854c-1.888,4.213-3.947,8.347-6.169,12.395c-2.223,4.043-4.61,8.001-7.15,11.856
			c0.743-2.166,1.956-5.115,2.296-6.424c-1.406,3.385-2.96,6.674-4.684,9.951c-1.712,2.472-3.487,4.899-5.324,7.281
			c-1.837,2.382-3.737,4.718-5.687,7.003c-1.956,2.285-3.969,4.525-6.033,6.708c-2.064,2.189-4.19,4.321-6.362,6.396
			c0.567-0.612,1.111-1.242,1.639-1.883c1.055-1.289,2.034-2.639,2.931-4.043c0.448-0.697,0.879-1.412,1.287-2.138
			c-3.024,2.994-6.158,5.875-9.396,8.636c-3.239,2.757-6.579,5.394-10.014,7.904c-3.436,2.506-6.969,4.882-10.581,7.128
			c-3.616,2.244-7.316,4.351-11.091,6.317c-3.799,1.973-7.677,3.799-11.624,5.472c-3.941,1.673-7.95,3.192-12.01,4.559
			s-8.176,2.574-12.327,3.618c-4.156,1.049-8.347,1.934-12.571,2.659c-7.887,0.919-15.826,1.247-23.758,0.987
			c-7.933-0.261-15.837-1.106-23.645-2.54c-7.808-1.429-15.499-3.436-23.01-6.005c-7.511-2.57-14.821-5.693-21.87-9.345
			c3.759,2.382,7.638,4.559,11.618,6.532c3.986,1.973,8.074,3.731,12.242,5.273c4.173,1.537,8.42,2.858,12.73,3.952
			c4.309,1.089,8.675,1.951,13.076,2.586c-6.101-0.61-12.16-1.584-18.145-2.915c-5.986-1.325-11.888-3.006-17.674-5.035
			c-5.787-2.023-11.449-4.39-16.954-7.088c-5.507-2.695-10.848-5.715-15.996-9.044c-5.139-3.305-10.069-6.926-14.76-10.841
			c-4.689-3.918-9.129-8.12-13.297-12.588c-4.168-4.468-8.052-9.191-11.635-14.142c-3.584-4.95-6.855-10.116-9.793-15.468
			c6.583,6.271,15.134,14.618,21.076,16.398c0.834-1.219-7.66-13.183-1.701-6.986c11.25,10.779,21.11,19.353,30.149,25.312
			c9.044,5.959,17.255,9.016,24.552,7.712c1.48-0.578-3.975-6.419-7.768-12.038c-3.793-5.625-6.243-10.711-1.871-8.63
			c2.699,1.559,5.443,3.045,8.233,4.445c2.784,1.395,5.614,2.71,8.477,3.941c5.734,2.456,11.609,4.568,17.595,6.322
			c1.06,0.408,2.126,0.799,3.204,1.168c1.072,0.369,2.155,0.714,3.243,1.043c1.089,0.323,2.183,0.629,3.283,0.913
			c1.1,0.284,2.206,0.55,3.317,0.788c0.544,0.295,1.616,0,2.966-0.34c16.155,2.727,31.708,1.678,40.293,0.907
			c3.198-0.227,6.373-0.658,9.532-1.145c0.386,0.017,0.777,0.045,1.168,0.091c0.386,0.045,0.771,0.108,1.157,0.181
			c0.38,0.074,0.76,0.164,1.14,0.272c0.374,0.108,0.748,0.227,1.111,0.363c1.826-1.111,3.663-2.121,5.5-2.966
			c2.07-0.527,4.122-1.111,6.158-1.746c2.036-0.641,4.054-1.332,6.056-2.081c1.996-0.754,3.975-1.554,5.925-2.416
			c1.956-0.856,3.884-1.769,5.789-2.727c1.134-0.391,2.262-0.794,3.379-1.219c1.123-0.425,2.234-0.868,3.34-1.332
			c1.106-0.459,2.206-0.941,3.294-1.44c1.089-0.499,2.166-1.021,3.238-1.559c-0.414-0.414-1.48-0.59-1.049-1.571
			c2.206-1.469,4.366-3.017,6.47-4.633c2.104-1.616,4.156-3.294,6.152-5.047c1.996-1.752,3.929-3.567,5.806-5.443
			c1.877-1.877,3.691-3.816,5.438-5.812c0.783-0.675,1.576-1.332,2.382-1.979c0.805-0.646,1.622-1.281,2.45-1.9
			c0.828-0.618,1.667-1.219,2.512-1.809c0.851-0.59,1.707-1.168,2.574-1.729c1.361-6.254,6.061-14.499,10.377-24.065
			c4.315-9.566,8.08-20.288,9.276-29.525h-0.193c0.431-2.319,0.794-4.65,1.094-6.991s0.539-4.689,0.714-7.037
			c0.176-2.353,0.284-4.712,0.335-7.071c0.045-2.359,0.028-4.718-0.051-7.076c0.414-1.588,0.89-3.13,1.48-4.593
			c-1.021-2.302-1.344-4.774-1.922-5.931c-0.329-7.655-0.697-14.238-1.486-20.895c-0.754-1.038-2.966-2.716-3.822-5.075
			c-0.363-1.168-0.748-2.325-1.157-3.476c-0.414-1.151-0.845-2.296-1.304-3.43c-0.459-1.134-0.947-2.257-1.452-3.368
			c-0.505-1.111-1.038-2.217-1.588-3.306c-0.567-1.293-1.157-2.58-1.758-3.856c-0.607-1.275-1.23-2.541-1.871-3.799
			c-0.641-1.253-1.298-2.506-1.979-3.742c-0.675-1.236-1.372-2.467-2.087-3.686c-2.432-4.16-5.074-8.193-7.916-12.083
			c-2.841-3.892-5.881-7.636-9.106-11.216c-3.226-3.584-6.634-6.997-10.206-10.229c-3.572-3.232-7.309-6.283-11.199-9.129
			c-0.047-0.408-0.038-0.82,0.028-1.225c0.034-0.204,0.085-0.403,0.147-0.595c0.062-0.193,0.136-0.386,0.227-0.567
			c-3.113-0.731-6.402-3.544-9.101-4.275c0.578,0,1.021-0.13,1.14-0.544c-0.771-0.249-1.537-0.527-2.296-0.822
			c-0.754-0.295-1.503-0.618-2.234-0.964c-0.737-0.346-1.463-0.709-2.177-1.1c-0.709-0.391-1.412-0.805-2.098-1.236
			c-0.624-0.448-1.253-0.879-1.894-1.298c-0.641-0.42-1.293-0.828-1.951-1.219c-0.658-0.391-1.327-0.771-1.996-1.134
			c-0.675-0.363-1.355-0.714-2.047-1.049c-0.442-0.091-0.89-0.176-1.338-0.249c-0.454-0.074-0.902-0.142-1.355-0.204
			c-0.448-0.057-0.902-0.108-1.355-0.153s-0.907-0.079-1.361-0.108c-0.828-0.357-1.661-0.652-2.489-0.992
			c-7.859-6.079-17.51-6.821-27.767-7.757c-2.591-0.442-5.2-0.811-7.814-1.106c-2.614-0.295-5.239-0.516-7.865-0.663
			c-2.625-0.153-5.256-0.227-7.887-0.227c-2.631,0-5.262,0.074-7.893,0.215c-8.375,0.624-12.038-0.873-18.23-0.811"/>
		<path style="fill:#415870;" d="M428.213,327.359c0.948-2.096,1.842-4.215,2.682-6.356c0.833-2.143,1.616-4.309,2.347-6.487
			c1.45-4.367,2.676-8.805,3.674-13.297C435.585,310.972,434.502,320.181,428.213,327.359L428.213,327.359z M227.878,383.172
			c-0.482-0.856-0.975-1.712-1.491-2.557c-0.51-0.845-1.038-1.678-1.582-2.501c-0.544-0.828-1.1-1.639-1.673-2.444
			c-0.573-0.805-1.157-1.605-1.758-2.387c3.929,3.754,8.108,7.241,12.503,10.439c4.4,3.192,9.004,6.09,13.79,8.664
			c4.786,2.58,9.741,4.831,14.828,6.748c5.086,1.911,10.297,3.482,15.593,4.695v0.181c-8.732-1.486-18.854-5.591-27.676-10.116
			C241.594,389.375,233.855,384.64,227.878,383.172L227.878,383.172z M416.533,349.23c0.006-0.113,0.017-0.227,0.028-0.346
			l0.034-0.346c0.017-0.113,0.028-0.227,0.045-0.34s0.034-0.232,0.057-0.346c0.017,0.377-0.017,0.755-0.102,1.123
			c-0.028,0.125-0.068,0.244-0.108,0.363 M173.489,368.537l-1.378-2.268c1.93,2.781,3.94,5.506,6.027,8.171
			c1.038,1.332,2.098,2.648,3.181,3.952c1.077,1.304,2.172,2.591,3.289,3.861c-1.043-1.043-2.058-2.109-3.045-3.204
			c-0.987-1.094-1.945-2.217-2.869-3.362c-0.928-1.144-1.826-2.313-2.693-3.504C175.134,370.989,174.296,369.773,173.489,368.537
			 M151.608,300.12c-0.425-3.402-0.737-6.816-0.93-10.235c-0.198-3.425-0.278-6.85-0.244-10.28c0.04-3.425,0.187-6.85,0.459-10.269
			c0.266-3.419,0.646-6.827,1.145-10.218c0.811-4.196,1.837-8.347,3.085-12.435c1.242-4.088,2.705-8.108,4.377-12.044
			c1.667-3.935,3.55-7.774,5.625-11.511c2.075-3.737,4.349-7.36,6.81-10.853c-3.815,6.605-7.134,13.485-9.929,20.583
			c-2.8,7.097-5.069,14.392-6.787,21.825c-1.718,7.428-2.886,14.981-3.487,22.585C151.127,284.872,151.085,292.51,151.608,300.12
			 M200.933,350.67c-0.459-1.049-0.896-2.104-1.316-3.164c-0.42-1.06-0.822-2.132-1.208-3.204c-0.386-1.077-0.748-2.16-1.094-3.249
			c-0.346-1.089-0.675-2.183-0.981-3.283c0.459,1.015,0.93,2.03,1.423,3.034c0.488,1.004,0.992,2.002,1.508,2.988
			c0.516,0.992,1.049,1.973,1.599,2.943c0.544,0.975,1.106,1.939,1.678,2.897c-0.919-0.414-1.185,0.595-1.61,0.981 M213.192,408.353
			l-3.294-2.45c3.085,1.752,6.215,3.396,9.401,4.882C218.04,410.4,215.234,409.153,213.192,408.353 M187.336,304.939
			c0.357,3.243,0.851,6.47,1.486,9.685c-0.817-1.809-1.678-3.578-2.699-5.353c0.153-0.346,0.289-0.692,0.414-1.049
			c0.125-0.352,0.238-0.709,0.335-1.072c0.096-0.363,0.176-0.731,0.244-1.1s0.125-0.737,0.164-1.111 M189.043,254.837
			c0.278-1.049,0.573-2.087,0.89-3.119c0.318-1.032,0.658-2.058,1.015-3.079c0.357-1.015,0.731-2.03,1.128-3.034
			s0.817-2.002,1.247-2.988c-0.408,1.23-0.8,2.467-1.174,3.714c-0.374,1.242-0.731,2.489-1.066,3.742
			c-0.34,1.253-0.658,2.512-0.958,3.776c-0.301,1.264-0.584,2.529-0.845,3.799C188.997,256.379,188.742,255.336,189.043,254.837"/>
	</g>
	<g>
		<path style="fill:#189AB6;" d="M228.343,49.818c3.317,1.446,6.577,3.034,9.764,4.757c3.187,1.718,6.3,3.578,9.328,5.563
			c3.028,1.99,5.971,4.105,8.823,6.339c2.852,2.24,5.602,4.593,8.256,7.065c2.54,2.382,4.99,4.854,7.349,7.411
			c2.359,2.563,4.621,5.211,6.782,7.938c2.16,2.727,4.219,5.54,6.175,8.42c1.951,2.88,3.799,5.835,5.529,8.851
			c-1.338-2.302-2.739-4.565-4.207-6.787c-1.469-2.223-3.005-4.4-4.599-6.532c-1.593-2.132-3.249-4.219-4.967-6.254
			c-1.712-2.036-3.487-4.026-5.319-5.959c1.304,1.378,2.569,2.79,3.799,4.23c1.23,1.446,2.421,2.92,3.572,4.423
			c1.157,1.503,2.268,3.039,3.345,4.599c1.072,1.559,2.109,3.153,3.102,4.763c0.992,1.633,1.951,3.289,2.858,4.967
			c0.913,1.684,1.786,3.385,2.608,5.109c0.828,1.718,1.61,3.465,2.353,5.228c0.737,1.763,1.435,3.544,2.081,5.341
			c-0.454-0.68-0.896-1.372-1.333-2.064s-0.862-1.395-1.276-2.098c-0.414-0.709-0.817-1.418-1.208-2.138
			c-0.397-0.714-0.777-1.44-1.151-2.172c-1.735-2.966-3.544-5.738-4.922-6.362c-2.461-4.083-5.115-8.052-7.95-11.885
			c-2.842-3.833-5.862-7.53-9.05-11.08c-6.389-7.094-13.439-13.565-21.054-19.324c-3.818-2.89-7.783-5.581-11.879-8.063
			c-4.094-2.489-8.313-4.757-12.645-6.81c-4.326-2.053-8.755-3.884-13.268-5.483c-4.519-1.599-9.112-2.966-13.767-4.094
			c1.633-0.102,3.272-0.091,4.905,0.034c1.627,0.13,3.249,0.374,4.848,0.731c1.593,0.352,3.164,0.822,4.695,1.401
			c1.532,0.575,3.021,1.257,4.457,2.041c5.052,2.642,9.146,5.772,13.966,7.95 M303.871,160.762
			c-0.431-3.81-0.981-7.411-1.644-11.108c0.221,0.913,0.425,1.826,0.607,2.744c0.181,0.924,0.34,1.843,0.476,2.773
			c0.136,0.924,0.255,1.854,0.346,2.79C303.752,158.891,303.82,159.827,303.871,160.762 M49.753,156.731
			c-0.323,3.912-0.488,7.842-0.607,11.641c-0.04-0.975-0.062-1.945-0.057-2.92C49.107,162.533,49.329,159.618,49.753,156.731
			 M178.712,46.376l-6.583,0.459c-4.213-0.187-8.432-0.17-12.645,0.045c-4.213,0.221-8.409,0.641-12.582,1.264
			c-4.173,0.618-8.307,1.44-12.401,2.461c-4.094,1.021-8.131,2.234-12.106,3.646c2.24-0.856,4.496-1.656,6.776-2.404
			c2.279-0.748,4.576-1.44,6.884-2.081c2.313-0.635,4.638-1.219,6.98-1.752c2.336-0.527,4.689-0.998,7.048-1.418
			s4.74-0.737,7.128-0.958c2.387-0.221,4.78-0.34,7.179-0.357c2.399-0.017,4.791,0.068,7.184,0.255
			c2.387,0.181,4.769,0.471,7.139,0.856 M195.739,52.426c7.964,1.59,15.69,4.199,22.987,7.763c3.646,1.78,7.173,3.793,10.558,6.027
			c3.385,2.228,6.629,4.678,9.702,7.326c-3.136-2.563-6.413-4.939-9.821-7.122c-3.41-2.18-6.943-4.162-10.581-5.937
			c-3.635-1.775-7.371-3.34-11.187-4.684c-3.816-1.344-7.712-2.467-11.658-3.357 M102.855,249.825
			c0.176-0.284,0.533-0.301,0.947-0.21c0.085,0.045,0.164,0.091,0.255,0.13c0.085,0.04,0.17,0.074,0.261,0.102
			c0.177,0.067,0.362,0.113,0.55,0.136c0.953,0.958,1.922,1.894,2.909,2.812c0.981,0.919,1.985,1.82,3.005,2.705
			c1.021,0.879,2.053,1.741,3.102,2.586c1.055,0.845,2.121,1.667,3.204,2.472c-0.653-0.203-1.298-0.43-1.934-0.68
			c-0.318-0.125-0.629-0.249-0.947-0.386c-0.312-0.136-0.624-0.272-0.93-0.42c-0.437-0.357-0.868-0.731-1.287-1.111
			c-0.42-0.38-0.828-0.771-1.23-1.168c-0.405-0.398-0.8-0.807-1.185-1.225c-0.387-0.415-0.765-0.839-1.134-1.27
			c-0.414-0.431-0.845-0.851-1.287-1.253c-0.442-0.403-0.902-0.794-1.372-1.162c-0.471-0.374-0.958-0.726-1.452-1.066
			c-0.493-0.34-1.004-0.663-1.52-0.964 M50.377,152.387l-0.102-0.431c0.176-1.338,0.323-2.671,0.544-3.975l0.193-0.459
			C50.819,149.149,50.615,150.771,50.377,152.387L50.377,152.387z M97.962,244.96c0.108-0.119,0.204-0.244,0.295-0.374
			c0.173-0.265,0.306-0.553,0.397-0.856c0.04-0.147,0.074-0.306,0.096-0.459c1.922,2.296,3.941,4.445,6.073,6.674
			c-0.079-0.034-0.164-0.068-0.249-0.096c-0.085-0.034-0.17-0.062-0.255-0.091c-0.085-0.023-0.17-0.051-0.255-0.074l-0.261-0.068
			C101.982,248.634,100.128,245.997,97.962,244.96 M74.186,182.961c-0.102-0.38-0.215-0.76-0.352-1.134
			c-0.13-0.374-0.278-0.737-0.437-1.1c-0.164-0.357-0.34-0.714-0.533-1.055c-0.193-0.346-0.403-0.686-0.624-1.009
			c0.607-4.91,1.486-9.713,2.637-15.23c-0.232-0.919,0-2.744-0.414-4.57c0.17-0.238,0.34-0.476,0.505-0.72
			c0.164-0.244,0.323-0.488,0.482-0.737c0.159-0.244,0.318-0.493,0.465-0.748c0.153-0.249,0.301-0.505,0.448-0.76
			c-0.635,3.102-1.128,6.232-1.469,9.379c-0.346,3.147-0.539,6.305-0.59,9.475c-0.045,3.164,0.051,6.328,0.301,9.486
			c0.244,3.153,0.641,6.294,1.179,9.418c-0.21-0.885-0.403-1.769-0.578-2.659c-0.17-0.89-0.323-1.78-0.459-2.676
			c-0.13-0.896-0.244-1.792-0.34-2.693c-0.096-0.902-0.17-1.803-0.221-2.71"/>
		<path style="fill:#189AB6;" d="M283.203,165.718c0.249,2.569,0.386,5.143,0.408,7.729c0.023,2.58-0.062,5.16-0.255,7.734
			c-0.198,2.569-0.505,5.137-0.919,7.683c-0.42,2.546-0.941,5.075-1.576,7.575c-2.37,10.246-5.84,19.976-8.687,29.344
			c6.152-9.622,11.074-22.539,13.847-33.585c2.773-11.046,4.094-20.163,6.787-22.063c2.699-1.9,3.459,6.629,1.65,17.912
			c-0.25,1.503-0.522,3-0.828,4.485c-0.306,1.491-0.641,2.977-1.004,4.451c-0.363,1.48-0.76,2.949-1.179,4.411
			c-0.42,1.463-0.873,2.915-1.35,4.355c-1.9,5.937-4.122,11.346-5.931,15.797c1.486-2.121,1.486-2.121,2.966-4.315
			c-0.38,0.488-0.737,0.992-1.066,1.52c-0.335,0.527-0.635,1.066-0.902,1.627c-0.272,0.556-0.516,1.128-0.726,1.712
			c-0.21,0.584-0.391,1.179-0.539,1.78c0.482-0.68,0.947-1.372,1.406-2.064c0.459-0.697,0.907-1.401,1.35-2.109
			c0.437-0.709,0.868-1.423,1.287-2.143c0.414-0.72,0.822-1.446,1.219-2.177c0.318-0.641,0.658-1.27,1.009-1.888
			c0.352-0.618,0.72-1.23,1.106-1.831c0.386-0.595,0.788-1.185,1.208-1.763c0.42-0.578,0.856-1.14,1.304-1.695
			c0,1.616,0,3.249-0.091,4.893c4.049-5.829,7.638-15.304,9.889-25.21c2.251-9.906,3.289-20.163,4.61-27.563
			c-0.369,4.684-0.907,9.356-1.622,14c-0.714,4.644-1.605,9.265-2.659,13.841c-1.06,4.582-2.285,9.118-3.68,13.609
			c-1.395,4.491-2.96,8.925-4.684,13.297c-1.866,4.689-3.958,9.282-6.277,13.767c-2.325,4.479-4.865,8.846-7.615,13.076
			c-5.512,8.462-11.848,16.358-18.916,23.571c-7.364,7.499-15.564,14.13-24.439,19.761c-8.876,5.629-18.368,10.223-28.289,13.694
			c-4.933,1.724-9.963,3.147-15.071,4.264c-10.217,2.244-20.667,3.248-31.124,2.988c-5.222-0.125-10.433-0.567-15.605-1.321
			c-11.063-1.361-21.944-3.935-32.445-7.678c-10.5-3.739-20.557-8.623-29.99-14.561c-18.925-11.917-34.986-27.863-47.04-46.7
			c-1.525-2.762-2.897-5.605-4.111-8.517c-0.612-1.457-1.179-2.926-1.712-4.411c-0.527-1.486-1.021-2.983-1.474-4.497
			c-0.573-1.854-1.106-3.72-1.599-5.602c-0.488-1.883-0.936-3.771-1.344-5.67c-0.403-1.905-0.765-3.81-1.083-5.733
			c-0.318-1.917-0.59-3.839-0.822-5.767c-1.125-6.21-1.886-12.481-2.279-18.78c-0.397-6.294-0.42-12.611-0.074-18.916
			c0.346-6.3,1.06-12.574,2.138-18.791c1.083-6.215,2.523-12.367,4.326-18.411c2.167-6.407,4.815-12.642,7.921-18.649
			c3.103-6.006,6.651-11.772,10.615-17.249c3.969-5.477,8.341-10.649,13.081-15.474c4.74-4.82,9.832-9.282,15.242-13.342
			c5.58-4.19,11.431-8.001,17.521-11.403c6.089-3.408,12.401-6.401,18.893-8.959c6.487-2.557,13.144-4.684,19.92-6.351
			c6.77-1.667,13.648-2.88,20.589-3.623c5.721-0.697,12.599,0.425,14.391,1.985c0.919,0.754,0.595,1.571-1.661,2.33
			c-1.072,0.284-2.149,0.55-3.232,0.805c-1.083,0.249-2.172,0.482-3.26,0.697c-1.089,0.215-2.183,0.42-3.283,0.601
			c-1.094,0.181-2.194,0.34-3.294,0.488c-11.016,2.088-21.796,5.271-32.179,9.503c-5.183,2.115-10.263,4.485-15.213,7.11
			c-4.95,2.62-9.764,5.489-14.425,8.596c0.607-1.486,3.289-3.425,6.373-5.353c0.731-0.42,1.463-0.851,2.183-1.293
			c0.72-0.437,1.435-0.89,2.149-1.35c0.709-0.459,1.412-0.93,2.109-1.406c0.692-0.482,1.384-0.97,2.064-1.469
			c-1.826,0.76-3.629,1.565-5.415,2.416c-1.786,0.851-3.55,1.746-5.285,2.688c-1.741,0.941-3.459,1.922-5.149,2.949
			c-1.69,1.026-3.357,2.092-4.99,3.204c-1.622,1.106-3.215,2.251-4.774,3.436c-1.565,1.185-3.096,2.41-4.593,3.669
			c-1.503,1.264-2.971,2.563-4.406,3.901s-2.829,2.71-4.196,4.117c1.922-1.985,3.895-3.918,5.931-5.795
			c2.03-1.871,4.117-3.686,6.254-5.443c2.138-1.752,4.326-3.442,6.56-5.069s4.514-3.192,6.838-4.689
			c-6.068,3.863-11.841,8.171-17.272,12.888c-5.438,4.71-10.515,9.82-15.191,15.287c-2.438,2.858-4.752,5.818-6.935,8.874
			c-2.189,3.056-4.241,6.198-6.158,9.43c-1.917,3.226-3.697,6.538-5.336,9.917c-1.639,3.379-3.13,6.827-4.474,10.331
			c-2.047,5.086-5.03,9.492-7.49,14.833c-0.731,1.52-1.361,3.096-1.883,4.706c-0.522,1.61-0.93,3.255-1.225,4.916
			c-0.295,1.667-0.471,3.351-0.533,5.047c-0.062,1.69-0.011,3.379,0.159,5.064c1.873-9.739,4.74-19.26,8.556-28.414
			c1.911-4.576,4.049-9.05,6.419-13.404c2.364-4.355,4.95-8.585,7.751-12.673c5.592-8.161,11.953-15.767,18.995-22.715
			c3.516-3.47,7.201-6.77,11.04-9.883c3.833-3.119,7.814-6.05,11.93-8.789c-0.011,0.017-0.023,0.034-0.028,0.051
			c-0.011,0.017-0.023,0.034-0.028,0.051c-0.011,0.017-0.017,0.034-0.023,0.051c-0.011,0.017-0.019,0.037-0.023,0.057
			c3.482-2.37,7.076-4.57,10.762-6.6c3.686-2.03,7.468-3.884,11.329-5.563c3.861-1.673,7.802-3.17,11.8-4.479
			c4.003-1.31,8.063-2.433,12.168-3.362c-5.103,1.48-10.138,3.232-14.618,4.445c5.818-1.684,11.726-3.022,17.697-4.009
			c5.976-0.987,12.004-1.616,18.054-1.888c6.044-0.266,12.106-0.181,18.145,0.267s12.044,1.253,17.986,2.416
			c-4.258-0.454-8.534-0.737-12.809-0.851c-4.281-0.113-8.568-0.057-12.843,0.176c-4.275,0.227-8.539,0.629-12.781,1.196
			c-4.247,0.573-8.466,1.315-12.65,2.223c-4.253,0.924-8.466,2.041-12.622,3.345c-4.151,1.31-8.245,2.801-12.265,4.479
			c-4.015,1.684-7.955,3.544-11.805,5.58c-3.844,2.036-7.604,4.247-11.25,6.629c-3.646,2.382-7.179,4.944-10.581,7.672
			c-3.398,2.728-6.663,5.62-9.781,8.664c-3.124,3.045-6.09,6.237-8.902,9.571c-2.807,3.334-5.455,6.799-7.927,10.388
			c-2.416,3.516-4.65,7.145-6.685,10.887c-2.041,3.742-3.89,7.587-5.528,11.516c-3.292,7.867-5.762,16.053-7.371,24.427
			c3.379-8.897,6.492-19.097,10.91-28.68c4.417-9.577,9.98-18.309,16.308-23.503c-4.706,5.966-8.908,12.314-12.56,18.978
			c-10.994,20.095-16.734,42.642-16.688,65.548l-0.76-6.821c-0.278,2.467-0.454,4.95-0.533,7.434
			c-0.074,2.489-0.04,4.978,0.091,7.456c0.13,2.484,0.369,4.961,0.709,7.428c0.34,2.461,0.777,4.91,1.321,7.337
			c0.544,2.427,1.14,4.842,1.797,7.247c0.658,2.399,1.372,4.786,2.143,7.15c0.771,2.364,1.599,4.712,2.478,7.042
			c0.885,2.325,1.826,4.633,2.818,6.912c0.669,1.616,1.333,3.221,2.075,4.803l-2.075-4.803c-1.65-4.049-3.107-8.182-4.36-12.372
			c-1.259-4.19-2.308-8.443-3.153-12.735c-0.845-4.292-1.48-8.624-1.905-12.979c-0.425-4.355-0.641-8.727-0.646-13.098
			c0.89,7.825,1.746,16.058,3.572,25.845c0-5.489-0.845-13.138-0.817-20.759c-0.147-2.495-0.221-4.99-0.221-7.49
			c0-2.495,0.079-4.99,0.232-7.485c0.153-2.495,0.38-4.978,0.68-7.456s0.68-4.95,1.134-7.405c-0.573,3.629-0.947,7.292-1.128,10.961
			c-0.181,3.669-0.164,7.349,0.051,11.017c0.215,3.669,0.624,7.326,1.23,10.949c0.607,3.629,1.406,7.218,2.393,10.756
			c-2.461-20.226-0.975-41.518,5.931-60.621c-0.794,2.648-1.503,5.319-2.121,8.006c-0.612,2.693-1.14,5.404-1.576,8.131
			c-0.437,2.727-0.777,5.472-1.026,8.222c-0.255,2.75-0.414,5.506-0.482,8.267c-0.352,4.684-0.437,9.384-0.249,14.079
			s0.641,9.373,1.367,14.011c0.726,4.644,1.718,9.242,2.966,13.767c1.253,4.525,2.767,8.982,4.531,13.331l-0.856-1.985
			c0.544,1.333,1.168,2.654,1.775,3.986c0.748,1.724,1.531,3.436,2.353,5.12c0.822,1.69,1.684,3.357,2.58,5.007
			c1.8,3.297,3.751,6.51,5.846,9.628c0.981,1.35,2.007,2.665,3.073,3.941c1.072,1.281,2.189,2.523,3.34,3.725
			c1.157,1.202,2.359,2.359,3.595,3.482c1.236,1.117,2.512,2.189,3.822,3.221l2.33,2.325c-1.826-1.111-2.966-1.48-0.284,1.633
			c1.514,1.695,3.09,3.328,4.735,4.893c1.644,1.571,3.351,3.068,5.12,4.496c1.769,1.423,3.595,2.778,5.472,4.054
			c1.877,1.276,3.805,2.478,5.784,3.595c8.091,4.831,16.841,8.897,25.987,13.223c1.537,0.646,3.102,1.23,4.684,1.752
			c1.582,0.522,3.187,0.981,4.808,1.384c1.616,0.397,3.249,0.737,4.893,1.009c1.644,0.272,3.3,0.488,4.961,0.635
			c0.318,0.147,0.652,0.272,0.998,0.363c0.34,0.091,0.692,0.153,1.043,0.187c0.352,0.034,0.709,0.034,1.06,0
			c0.357-0.028,0.703-0.091,1.049-0.181c1.644,0.13,3.317,0.221,4.978,0.295c1.009,0.102,2.013,0.176,3.022,0.232
			c1.009,0.051,2.024,0.085,3.034,0.091c1.009,0.011,2.019-0.006,3.028-0.04c1.015-0.04,2.024-0.096,3.028-0.176
			c-3.941,0-8.035,0-12.112-0.108l-4.536-0.397c0.357-0.13,0.714-0.238,1.083-0.329c0.369-0.085,0.737-0.153,1.111-0.198
			s0.748-0.074,1.128-0.074c0.374-0.006,0.748,0.011,1.128,0.051c-3.499-0.397-6.98-0.941-10.433-1.639
			c-3.448-0.692-6.872-1.531-10.252-2.512c-3.379-0.981-6.719-2.104-10.002-3.374c-3.283-1.264-6.515-2.665-9.679-4.207
			c-3.226-1.565-6.379-3.26-9.464-5.081c-3.085-1.82-6.096-3.765-9.021-5.829c-2.932-2.064-5.772-4.247-8.522-6.538
			c-2.75-2.296-5.409-4.701-7.967-7.213c1.486,0.907,3.606,2.268,4.553,2.716c-2.359-1.571-4.627-3.277-6.878-5.041
			c-1.627-1.673-3.209-3.385-4.752-5.137c-1.537-1.752-3.034-3.544-4.479-5.37c-2.901-3.654-5.615-7.452-8.131-11.38
			c0.386,0.516,0.782,1.026,1.196,1.525c0.414,0.493,0.839,0.981,1.276,1.457c0.442,0.471,0.896,0.93,1.361,1.378
			c0.465,0.448,0.941,0.885,1.429,1.304c-1.831-2.744-3.555-5.563-5.177-8.437c-1.622-2.875-3.136-5.812-4.536-8.8
			c-1.401-2.988-2.688-6.033-3.856-9.118c-1.174-3.087-2.23-6.217-3.164-9.384c-0.936-3.187-1.746-6.407-2.433-9.656
			c-0.686-3.249-1.242-6.526-1.678-9.821c-0.431-3.289-0.737-6.6-0.913-9.917c-0.181-3.317-0.227-6.64-0.153-9.957
			c0.471-6.147,1.395-12.248,2.773-18.253c1.372-6.005,3.187-11.902,5.432-17.64c2.251-5.738,4.916-11.301,7.989-16.642
			c3.068-5.341,6.532-10.45,10.36-15.276c-2.37,2.506-4.604,5.132-6.697,7.876c-2.092,2.744-4.043,5.591-5.835,8.539
			c-1.786,2.949-3.425,5.988-4.893,9.106c-1.469,3.124-2.773,6.317-3.907,9.577c1.367-4.559,3.005-9.033,4.899-13.399
			c1.9-4.366,4.054-8.613,6.453-12.724s5.041-8.074,7.91-11.873c2.869-3.793,5.959-7.417,9.259-10.847
			c3.283-3.425,6.782-6.64,10.462-9.634c3.686-2.988,7.553-5.744,11.579-8.256c4.026-2.506,8.205-4.763,12.514-6.753
			c4.304-1.99,8.732-3.708,13.251-5.149c-5.75,4.094-13.342,9.373-15.61,13.643c0.8,0.8,11.165-3.884,5.574-0.267
			c-9.889,6.969-17.861,13.195-23.719,19.273c-5.852,6.078-9.43,11.862-9.503,17.561c0.21,1.242,5.472-2.081,10.377-4.139
			c4.91-2.064,9.072-3.175,6.85-0.147c-1.588,1.826-3.124,3.697-4.604,5.614c-1.48,1.917-2.903,3.878-4.264,5.88
			s-2.665,4.043-3.907,6.124c-1.236,2.075-2.416,4.196-3.533,6.345c-0.465,0.748-0.913,1.503-1.355,2.262
			c-0.437,0.765-0.862,1.537-1.27,2.319c-0.819,1.557-1.579,3.144-2.279,4.757c-0.062,0.181-0.119,0.369-0.159,0.561
			c-0.04,0.187-0.068,0.38-0.079,0.573c-0.017,0.193-0.017,0.386,0,0.578c0.011,0.193,0.034,0.386,0.074,0.573
			c-0.872,2.464-1.666,4.954-2.382,7.468c-0.72,2.512-1.355,5.052-1.911,7.604c-1.121,5.108-1.915,10.282-2.376,15.491
			c-0.295,2.478-0.448,4.939-0.522,7.411c-0.074,0.295-0.153,0.59-0.249,0.879c-0.096,0.284-0.198,0.567-0.318,0.851
			c-0.113,0.278-0.238,0.556-0.374,0.828c-0.136,0.272-0.278,0.539-0.437,0.799c0.578,1.554,1.066,3.096,1.486,4.621
			c0.091,1.65,0.221,3.289,0.403,4.927c0.181,1.639,0.408,3.272,0.675,4.899c0.272,1.627,0.584,3.243,0.947,4.854
			c0.357,1.605,0.76,3.204,1.208,4.791c0.125,0.924,0.261,1.843,0.42,2.761s0.329,1.831,0.516,2.744
			c0.187,0.907,0.391,1.82,0.612,2.722c0.221,0.907,0.454,1.803,0.703,2.699c0.369-0.249,0.669-1.038,1.333-0.578
			c0.8,1.905,1.656,3.782,2.574,5.625c0.924,1.849,1.9,3.663,2.943,5.449c1.038,1.78,2.132,3.527,3.283,5.239
			c1.157,1.707,2.364,3.379,3.623,5.012c0.397,0.697,0.782,1.401,1.157,2.109c0.374,0.709,0.731,1.423,1.077,2.149
			c0.352,0.72,0.686,1.452,1.004,2.183c0.323,0.731,0.635,1.474,0.93,2.217c4.565,1.956,10.155,6.776,16.795,11.42
			c1.61,1.196,3.266,2.33,4.961,3.413c1.69,1.077,3.425,2.092,5.188,3.051s3.561,1.849,5.392,2.676
			c1.826,0.828,3.686,1.593,5.568,2.291v-0.119c1.695,0.663,3.413,1.287,5.149,1.86c1.729,0.573,3.476,1.1,5.239,1.576
			c3.518,0.966,7.086,1.74,10.688,2.319c0.284,0.13,0.567,0.267,0.845,0.403c0.278,0.142,0.556,0.284,0.828,0.431
			c0.278,0.147,0.55,0.301,0.817,0.454c0.272,0.153,0.539,0.312,0.805,0.476c1.911-0.442,3.822-0.323,4.774-0.607
			c5.925,0.89,10.921,1.588,16.109,1.956c0.34-0.244,0.686-0.471,1.038-0.686c0.712-0.425,1.46-0.787,2.234-1.083
			c0.386-0.147,0.783-0.284,1.179-0.397c1.886-0.206,3.763-0.492,5.625-0.856c0.93-0.181,1.86-0.38,2.784-0.601
			c0.919-0.221,1.837-0.459,2.75-0.72c1.072-0.244,2.132-0.499,3.192-0.765c1.06-0.272,2.121-0.561,3.17-0.862
			c1.055-0.301,2.098-0.618,3.141-0.953c1.043-0.329,2.081-0.675,3.113-1.038c3.527-1.236,6.991-2.654,10.371-4.241
			c6.769-3.185,13.197-7.051,19.182-11.539c2.988-2.245,5.863-4.638,8.607-7.173c0.159,0.011,0.318,0.028,0.471,0.062
			c0.159,0.034,0.312,0.079,0.465,0.136c0.147,0.057,0.295,0.119,0.437,0.193c0.142,0.079,0.278,0.164,0.403,0.261
			c1.009-2.274,3.652-4.349,4.599-6.305c-0.091,0.448,0,0.8,0.249,0.953c0.306-0.556,0.624-1.1,0.964-1.633
			c0.34-0.527,0.692-1.049,1.066-1.559c0.369-0.51,0.76-1.009,1.162-1.491c0.403-0.488,0.822-0.958,1.259-1.412
			c0.425-0.414,0.845-0.828,1.259-1.259c0.414-0.425,0.817-0.862,1.208-1.304c0.391-0.448,0.777-0.896,1.151-1.361
			c0.374-0.459,0.737-0.924,1.094-1.401c0.142-0.323,0.272-0.652,0.397-0.981c0.13-0.329,0.25-0.658,0.363-0.992
			c0.108-0.335,0.215-0.669,0.312-1.009c0.102-0.34,0.193-0.68,0.278-1.021c0.397-0.578,0.771-1.174,1.14-1.752
			c5.784-5.086,7.785-12.321,10.008-20.005c0.72-1.911,1.389-3.844,2.007-5.789c0.612-1.951,1.174-3.918,1.673-5.903
			c0.505-1.979,0.953-3.975,1.338-5.982c0.391-2.007,0.726-4.026,0.998-6.05c0.76-6.464,2.45-9.027,3.323-13.762"/>
		<path style="fill:#189AB6;" d="M118.732,261.698c1.457,1.038,2.937,2.036,4.445,2.994s3.039,1.877,4.593,2.761
			c1.554,0.879,3.13,1.718,4.729,2.518c1.599,0.799,3.215,1.554,4.848,2.274c-7.23-2.461-14.079-4.644-18.615-10.501
			 M105.923,100.839c0.726-0.232,1.452-0.482,2.166-0.748c0.72-0.261,1.435-0.539,2.138-0.834c0.709-0.289,1.412-0.59,2.109-0.907
			c0.692-0.318,1.384-0.652,2.064-0.992c-3.436,2.438-6.708,5.103-9.793,7.978s-5.971,5.954-8.641,9.22
			c-2.671,3.26-5.12,6.702-7.326,10.291c-2.211,3.595-4.179,7.326-5.886,11.182h-0.136c0.754-1.758,1.565-3.493,2.438-5.194
			c0.873-1.707,1.803-3.379,2.795-5.012c0.992-1.639,2.041-3.238,3.147-4.803c1.106-1.559,2.268-3.085,3.482-4.565
			c4.695-6.141,9.498-11.255,11.499-15.582 M103.745,249.615l0.255,0.068c0.085,0.023,0.176,0.045,0.261,0.074
			c0.085,0.028,0.17,0.051,0.255,0.079c0.079,0.028,0.164,0.062,0.249,0.091c-0.091-0.017-0.187-0.034-0.278-0.057
			c-0.091-0.023-0.181-0.051-0.272-0.079c-0.178-0.063-0.351-0.141-0.516-0.232 M125.105,61.59l1.939-0.709
			c-2.4,1.056-4.77,2.181-7.105,3.374c-1.168,0.595-2.325,1.208-3.476,1.837c-1.151,0.629-2.291,1.27-3.425,1.934
			c0.947-0.641,1.905-1.253,2.886-1.843c0.975-0.59,1.973-1.151,2.977-1.69c1.009-0.539,2.03-1.049,3.062-1.531
			C123.001,62.474,124.045,62.021,125.105,61.59 M180.43,55.052c2.648,0.181,5.296,0.448,7.927,0.805
			c2.631,0.357,5.251,0.805,7.853,1.344c2.603,0.533,5.188,1.157,7.746,1.866c2.563,0.714,5.098,1.508,7.604,2.393
			c3.076,1.235,6.084,2.633,9.01,4.19c2.926,1.554,5.767,3.26,8.517,5.12c2.744,1.854,5.392,3.85,7.927,5.988
			c2.535,2.138,4.956,4.4,7.247,6.793c-4.462-3.884-9.208-7.428-14.198-10.609c-4.984-3.181-10.206-5.993-15.605-8.403
			c-5.404-2.41-10.978-4.417-16.676-6.005c-5.704-1.588-11.511-2.75-17.379-3.482 M134.654,85.121
			c0.862-0.187,1.729-0.363,2.603-0.527c0.868-0.159,1.741-0.306,2.614-0.437c1.753-0.258,3.513-0.46,5.279-0.607
			c-0.851,0.198-1.69,0.408-2.529,0.629c-0.845,0.227-1.678,0.459-2.512,0.709c-0.834,0.244-1.661,0.505-2.489,0.777
			c-0.822,0.272-1.644,0.556-2.461,0.851c0.459-0.635-0.284-0.992-0.505-1.378 M88.918,85.926l2.342-2.155
			c-1.775,2.109-3.499,4.23-5.115,6.436C86.638,89.306,87.999,87.361,88.918,85.926L88.918,85.926z M171.476,81.549
			c-2.523-0.21-5.058-0.295-7.575-0.249c1.48-0.357,2.966-0.76,4.445-1.276c0.238,0.164,0.482,0.318,0.731,0.459
			c0.249,0.147,0.505,0.284,0.765,0.403c0.261,0.125,0.527,0.238,0.794,0.34c0.272,0.108,0.544,0.198,0.822,0.278 M209.365,90.27
			c0.754,0.363,1.503,0.743,2.245,1.14c0.737,0.397,1.469,0.805,2.194,1.23c0.72,0.425,1.435,0.862,2.143,1.315
			c0.703,0.454,1.401,0.919,2.092,1.401c-0.879-0.499-1.763-0.981-2.654-1.452s-1.792-0.924-2.693-1.367
			c-0.907-0.442-1.82-0.873-2.733-1.287c-0.919-0.414-1.843-0.817-2.773-1.202C208.197,90.049,209.042,90.049,209.365,90.27"/>
	</g>
</g>
</svg>
